<svg width="260" height="65" viewBox="0 0 260 65" fill="none" xmlns="http://www.w3.org/2000/svg">
<g clip-path="url(#clip0_22_258)">
<path d="M0 0V64.46H64.46V0H0ZM61.32 61.32H3.14V3.14H61.32V61.31V61.32Z" fill="white"/>
<path d="M60.32 4.14001H4.14001V60.31H60.32V4.14001ZM37.14 24.39C37.32 23.96 37.51 23.51 37.67 23.07C38.91 19.78 39.11 16.21 38.21 12.68C39.32 13.66 40.09 15.39 40.46 17.11C40.86 18.94 40.83 20.95 40.46 22.78C40.43 22.92 40.4 23.11 40.37 23.24C40.3 23.51 40.22 23.88 40.14 24.13L40.01 24.57C39.92 24.85 39.81 25.14 39.71 25.42L39.39 26.22C38.94 27.28 38.58 28.35 38.34 29.51C38.3 29.73 38.25 29.97 38.22 30.2C38.16 30.57 38.12 30.97 38.09 31.34C38.01 32.44 38.06 33.51 38.21 34.6C38.36 35.67 38.61 36.75 38.94 37.76C38.55 37.49 38.2 37.11 37.89 36.7C36.73 35.18 36.04 33.02 35.94 30.82C35.83 28.58 36.33 26.27 37.16 24.38L37.14 24.39ZM29.64 24.34C29.71 24.14 29.85 23.74 29.93 23.54L30.06 23.14C30.23 22.63 30.39 22.06 30.54 21.54C30.81 20.53 31.02 19.48 31.17 18.42C31.53 15.79 31.46 13.01 30.99 10.36C31.82 11.2 32.41 12.4 32.86 13.66C33.9 16.62 33.97 20.12 33.3 23.25C33.24 23.55 33.13 23.99 33.06 24.29C33.05 24.36 33.01 24.48 32.99 24.54C32.94 24.7 32.82 25.13 32.77 25.29C32.68 25.57 32.54 25.97 32.44 26.25C31.84 27.93 31.38 29.65 31.15 31.48C30.79 34.33 31.03 37.31 31.7 40.09C31.26 39.73 30.89 39.25 30.55 38.73C29.59 37.26 28.95 35.4 28.66 33.47C28.19 30.4 28.64 27.11 29.66 24.34H29.64ZM22.66 24.39C22.84 23.96 23.03 23.51 23.19 23.07C24.43 19.78 24.63 16.21 23.73 12.68C24.84 13.66 25.61 15.39 25.98 17.11C26.38 18.94 26.35 20.95 25.98 22.78C25.95 22.92 25.92 23.11 25.89 23.24C25.82 23.51 25.74 23.88 25.66 24.13L25.53 24.57C25.44 24.85 25.33 25.14 25.23 25.42L24.91 26.22C24.46 27.28 24.1 28.35 23.86 29.51C23.82 29.73 23.77 29.97 23.74 30.2C23.68 30.57 23.64 30.97 23.61 31.34C23.53 32.44 23.58 33.51 23.73 34.6C23.88 35.67 24.13 36.75 24.46 37.76C24.07 37.49 23.72 37.11 23.41 36.7C22.25 35.18 21.56 33.02 21.46 30.82C21.35 28.58 21.85 26.27 22.68 24.38L22.66 24.39ZM44.39 42.02C42.66 45.24 39.77 47.05 37.05 48.12C31.08 50.39 22.92 49.71 17.86 44.45C16.55 43.04 15.37 41.1 15.13 38.75C14.92 36.78 15.51 34.85 16.53 33.52C17.26 32.54 18.14 31.85 19.07 31.35C18.36 32.22 17.69 33.17 17.21 34.27C15.61 37.92 17.41 40.57 19.76 42.21C24.42 45.39 31.3 45.69 36.35 44.25C41.61 42.76 47.29 38.37 41.45 31.35C42.86 32.11 44.23 33.38 44.95 35.28C45.8 37.49 45.45 40.06 44.39 42.03V42.02Z" fill="white"/>
<path d="M120.02 46.46C120.02 46.58 119.96 46.64 119.85 46.64C119.73 46.64 119.64 46.64 119.56 46.64C119.45 46.64 119.34 46.66 119.24 46.69C119.14 46.72 119.07 46.79 119.02 46.91C118.98 47.01 118.95 47.12 118.91 47.23C118.88 47.34 118.84 47.45 118.81 47.55L118.32 49.1L116.79 53.83L115.59 53.9C115.31 52.94 115.03 51.98 114.74 51.03C114.46 50.08 114.17 49.13 113.89 48.17C113.6 49.11 113.31 50.06 113.03 51C112.75 51.94 112.44 52.89 112.13 53.83L110.88 53.9C110.68 53.15 110.48 52.41 110.27 51.66C110.06 50.91 109.86 50.17 109.68 49.42C109.6 49.07 109.51 48.71 109.41 48.34C109.32 47.98 109.22 47.62 109.12 47.28C109.08 47.15 109.03 47.04 108.97 46.96C108.91 46.88 108.8 46.83 108.64 46.83C108.57 46.83 108.51 46.83 108.44 46.84C108.37 46.84 108.3 46.85 108.22 46.85C108.13 46.85 108.08 46.79 108.08 46.68C108.08 46.6 108.13 46.54 108.22 46.51C108.35 46.47 108.5 46.45 108.67 46.44C108.84 46.43 108.99 46.42 109.13 46.4C109.29 46.38 109.45 46.36 109.61 46.33C109.77 46.3 109.92 46.29 110.07 46.29C110.15 46.29 110.22 46.34 110.26 46.44C110.3 46.54 110.33 46.65 110.36 46.76C110.39 46.87 110.4 46.96 110.41 47.02C110.64 48.07 110.89 49.1 111.14 50.13C111.39 51.16 111.63 52.19 111.85 53.24C112.09 52.47 112.32 51.69 112.54 50.92C112.76 50.15 112.98 49.38 113.19 48.62C113.26 48.39 113.32 48.16 113.39 47.93C113.46 47.7 113.52 47.47 113.58 47.24C113.61 47.13 113.63 47.01 113.65 46.89C113.67 46.77 113.7 46.65 113.73 46.54C113.78 46.42 113.87 46.36 114 46.36H114.34C114.5 46.36 114.59 46.43 114.61 46.56C114.63 46.7 114.66 46.83 114.7 46.96C115 48.01 115.29 49.05 115.59 50.09C115.89 51.13 116.18 52.17 116.48 53.2C116.69 52.51 116.9 51.82 117.11 51.14C117.32 50.45 117.51 49.76 117.7 49.06C117.79 48.73 117.89 48.4 117.98 48.06C118.07 47.72 118.16 47.38 118.23 47.05C118.23 47 118.25 46.96 118.25 46.92C118.25 46.88 118.25 46.84 118.25 46.8C118.25 46.72 118.19 46.66 118.07 46.65C117.95 46.63 117.82 46.62 117.69 46.63C117.56 46.63 117.47 46.63 117.42 46.63C117.32 46.63 117.27 46.58 117.27 46.48C117.27 46.38 117.32 46.33 117.41 46.33H119.83C119.93 46.33 119.98 46.38 119.98 46.48L120.02 46.46Z" fill="white"/>
<path d="M130.13 52.1399C130.13 52.1399 130.13 52.2099 130.1 52.2199C130.07 52.3099 130 52.4299 129.9 52.5599C129.79 52.6899 129.67 52.8099 129.54 52.9299C129.41 53.0499 129.3 53.1299 129.22 53.1899C128.91 53.3999 128.56 53.5799 128.18 53.7099C127.79 53.8399 127.41 53.9099 127.02 53.9099C126.7 53.9099 126.35 53.8599 125.96 53.7599C125.57 53.6599 125.24 53.5199 124.97 53.3399C124.45 52.9899 124.06 52.5399 123.82 51.9799C123.58 51.4199 123.46 50.8399 123.46 50.2299C123.46 49.5399 123.59 48.8999 123.87 48.3099C124.14 47.7199 124.57 47.2499 125.17 46.8799C125.44 46.7199 125.74 46.5899 126.08 46.4799C126.42 46.3699 126.74 46.3199 127.05 46.3199C127.6 46.3199 128.09 46.4299 128.51 46.6599C128.93 46.8799 129.26 47.1999 129.5 47.5999C129.74 48.0099 129.86 48.4899 129.86 49.0499C129.86 49.2099 129.82 49.3099 129.76 49.3599C129.69 49.4099 129.59 49.4299 129.44 49.4299C129.25 49.4299 129.07 49.4299 128.88 49.4199C128.69 49.4199 128.51 49.3999 128.32 49.3899C128.06 49.3699 127.8 49.3599 127.54 49.3599H125.81C125.49 49.3599 125.18 49.3599 124.86 49.3899C124.86 49.5399 124.84 49.6799 124.83 49.8199C124.83 49.9599 124.82 50.1099 124.82 50.2499C124.82 50.5999 124.86 50.9499 124.95 51.3199C125.04 51.6899 125.17 52.0299 125.36 52.3399C125.55 52.6499 125.78 52.8999 126.07 53.0999C126.36 53.2999 126.71 53.3899 127.12 53.3899C127.53 53.3899 127.94 53.3199 128.32 53.1899C128.7 53.0599 129.05 52.8499 129.37 52.5599C129.45 52.4799 129.53 52.3899 129.6 52.2899C129.67 52.1899 129.75 52.1099 129.83 52.0299C129.88 51.9799 129.93 51.9599 129.98 51.9599C130.03 51.9599 130.06 51.9799 130.09 52.0199C130.12 52.0599 130.13 52.0999 130.13 52.1499V52.1399ZM128.52 48.9299C128.52 48.5499 128.48 48.1799 128.42 47.8299C128.36 47.4799 128.23 47.1899 128.01 46.9599C127.79 46.7299 127.45 46.6199 126.96 46.6199C126.52 46.6199 126.16 46.7399 125.89 46.9799C125.61 47.2199 125.4 47.5199 125.25 47.8799C125.1 48.2399 124.99 48.6099 124.91 48.9799C125.14 48.9799 125.37 48.9999 125.6 48.9999C125.82 48.9999 126.05 48.9999 126.27 48.9999C126.64 48.9999 127.02 48.9999 127.39 48.9799C127.76 48.9699 128.14 48.9499 128.51 48.9299H128.52Z" fill="white"/>
<path d="M137.65 53.67C137.65 53.67 137.64 53.76 137.61 53.8C137.59 53.84 137.55 53.86 137.49 53.86C137.2 53.86 136.91 53.86 136.61 53.84C136.31 53.83 136.01 53.82 135.71 53.82H135.22C135.02 53.82 134.83 53.82 134.63 53.84C134.43 53.85 134.24 53.86 134.04 53.86C134 53.86 133.98 53.84 133.96 53.81C133.95 53.78 133.94 53.75 133.94 53.72V53.64C133.94 53.64 133.94 53.58 133.95 53.56C133.97 53.52 134.02 53.5 134.11 53.5C134.2 53.5 134.29 53.5 134.39 53.5C134.49 53.5 134.55 53.5 134.58 53.5C134.71 53.5 134.83 53.47 134.93 53.41C135.03 53.35 135.08 53.24 135.08 53.1C135.08 52.38 135.08 51.66 135.09 50.95C135.09 50.24 135.1 49.52 135.1 48.81C135.1 48.1 135.1 47.35 135.1 46.62C135.1 45.89 135.1 45.16 135.1 44.43C135.1 44.36 135.1 44.29 135.09 44.21C135.09 44.13 135.05 44.07 135.01 44.02C134.97 43.97 134.94 43.95 134.9 43.94C134.86 43.94 134.82 43.94 134.76 43.94C134.59 43.94 134.43 43.97 134.26 44.02C134.1 44.08 133.94 44.1 133.78 44.1C133.68 44.1 133.63 44.04 133.63 43.92C133.63 43.85 133.69 43.79 133.8 43.77C133.92 43.74 134.01 43.72 134.07 43.71C134.4 43.64 134.75 43.55 135.13 43.46C135.51 43.37 135.86 43.26 136.17 43.14C136.19 43.14 136.21 43.14 136.23 43.13C136.25 43.12 136.26 43.12 136.27 43.12C136.33 43.12 136.36 43.14 136.37 43.18C136.38 43.22 136.39 43.26 136.39 43.31C136.39 43.57 136.39 43.83 136.39 44.09C136.39 44.35 136.39 44.61 136.39 44.87V48.79C136.39 49.51 136.39 50.23 136.4 50.95C136.4 51.67 136.41 52.39 136.41 53.11C136.41 53.26 136.47 53.36 136.6 53.42C136.73 53.48 136.85 53.51 136.97 53.51C137.07 53.51 137.17 53.51 137.26 53.5C137.35 53.5 137.45 53.49 137.54 53.49C137.59 53.49 137.62 53.52 137.62 53.57C137.62 53.62 137.63 53.66 137.63 53.69L137.65 53.67Z" fill="white"/>
<path d="M148.23 52.11C148.23 52.18 148.18 52.27 148.08 52.38C147.98 52.5 147.9 52.58 147.86 52.63L147.61 52.88C147.53 52.96 147.43 53.04 147.33 53.12C147.04 53.33 146.7 53.5 146.29 53.64C145.89 53.79 145.51 53.86 145.16 53.86C144.45 53.86 143.83 53.7 143.29 53.39C142.75 53.08 142.33 52.65 142.03 52.1C141.73 51.55 141.57 50.93 141.57 50.23C141.57 49.53 141.71 48.89 141.99 48.28C142.27 47.67 142.71 47.18 143.32 46.81C143.58 46.65 143.87 46.53 144.2 46.43C144.53 46.33 144.83 46.29 145.13 46.29C145.36 46.29 145.59 46.32 145.81 46.37C146.03 46.43 146.24 46.5 146.45 46.59C146.57 46.65 146.69 46.7 146.8 46.76C146.91 46.82 147.03 46.84 147.16 46.84C147.27 46.84 147.36 46.8 147.43 46.74C147.5 46.67 147.55 46.64 147.59 46.64C147.62 46.64 147.63 46.66 147.63 46.7C147.65 46.81 147.66 46.92 147.65 47.04C147.65 47.15 147.65 47.26 147.65 47.36C147.65 47.57 147.67 47.77 147.68 47.98C147.68 48.19 147.7 48.39 147.71 48.6V48.64C147.71 48.74 147.71 48.82 147.68 48.88C147.65 48.94 147.58 48.96 147.46 48.96C147.39 48.96 147.35 48.92 147.33 48.85C147.31 48.78 147.29 48.71 147.27 48.65C147.2 48.38 147.11 48.09 146.98 47.78C146.85 47.47 146.67 47.22 146.45 47.04C146.31 46.91 146.14 46.8 145.93 46.72C145.72 46.64 145.52 46.59 145.33 46.59C144.88 46.59 144.5 46.7 144.19 46.93C143.88 47.16 143.63 47.45 143.44 47.81C143.25 48.17 143.12 48.55 143.03 48.96C142.94 49.37 142.9 49.76 142.9 50.12C142.9 50.48 142.94 50.85 143.03 51.23C143.12 51.61 143.25 51.96 143.43 52.29C143.61 52.62 143.85 52.88 144.16 53.07C144.46 53.27 144.83 53.36 145.26 53.36C145.86 53.36 146.36 53.25 146.76 53.03C147.16 52.81 147.55 52.47 147.92 52.01C147.96 51.95 148.01 51.91 148.07 51.91C148.19 51.91 148.25 51.97 148.25 52.08L148.23 52.11Z" fill="white"/>
<path d="M158.76 53.11C158.76 53.11 158.76 53.18 158.75 53.19C158.66 53.4 158.5 53.55 158.28 53.66C158.06 53.77 157.84 53.82 157.63 53.82C157.24 53.82 156.96 53.71 156.78 53.48C156.61 53.25 156.47 52.97 156.37 52.63C156.01 52.96 155.62 53.23 155.19 53.45C154.76 53.67 154.3 53.78 153.8 53.78C153.46 53.78 153.13 53.71 152.83 53.58C152.53 53.44 152.28 53.25 152.09 52.98C151.9 52.72 151.81 52.4 151.81 52.03C151.81 51.64 151.91 51.3 152.11 51.01C152.31 50.73 152.57 50.48 152.88 50.28C153.19 50.08 153.53 49.92 153.89 49.79C154.25 49.66 154.59 49.57 154.91 49.5C155.12 49.45 155.34 49.41 155.57 49.37C155.79 49.33 156.01 49.3 156.23 49.26C156.23 49 156.22 48.7 156.2 48.35C156.18 48 156.1 47.72 155.98 47.5C155.86 47.29 155.7 47.09 155.49 46.93C155.28 46.76 155.06 46.68 154.8 46.68C154.37 46.68 154.03 46.79 153.79 47.02C153.55 47.24 153.37 47.56 153.27 47.97C153.27 48.02 153.25 48.07 153.25 48.12C153.25 48.17 153.24 48.22 153.23 48.27C153.23 48.33 153.19 48.37 153.13 48.42C153.07 48.47 153.01 48.48 152.94 48.48C152.76 48.48 152.6 48.44 152.46 48.35C152.32 48.26 152.24 48.13 152.24 47.93C152.24 47.82 152.26 47.72 152.3 47.64C152.42 47.35 152.62 47.11 152.89 46.92C153.16 46.73 153.46 46.58 153.79 46.48C154.12 46.38 154.43 46.33 154.72 46.33C155.22 46.33 155.68 46.42 156.09 46.61C156.5 46.8 156.83 47.07 157.08 47.43C157.33 47.79 157.45 48.24 157.45 48.78C157.45 49.39 157.45 50 157.45 50.61C157.45 51.23 157.46 51.84 157.5 52.46C157.5 52.67 157.55 52.84 157.63 53C157.7 53.15 157.86 53.23 158.09 53.23C158.21 53.23 158.34 53.2 158.47 53.14C158.6 53.08 158.69 53.05 158.73 53.05C158.76 53.05 158.77 53.07 158.77 53.12L158.76 53.11ZM156.31 52.21C156.27 51.79 156.25 51.37 156.25 50.94C156.25 50.51 156.24 50.09 156.23 49.66H156.03C155.74 49.66 155.42 49.7 155.07 49.79C154.72 49.88 154.39 50.01 154.07 50.19C153.75 50.37 153.49 50.59 153.29 50.86C153.09 51.13 152.99 51.43 152.99 51.78C152.99 52.23 153.12 52.57 153.37 52.79C153.62 53.02 153.96 53.13 154.39 53.13C154.6 53.13 154.82 53.08 155.06 52.98C155.3 52.88 155.54 52.76 155.76 52.62C155.98 52.48 156.17 52.34 156.31 52.2V52.21Z" fill="white"/>
<path d="M167.75 47.62C167.75 47.71 167.72 47.8 167.65 47.88C167.58 47.96 167.49 48 167.39 48C167.25 48 167.15 47.95 167.09 47.86C167.03 47.77 166.98 47.66 166.94 47.54C166.9 47.42 166.83 47.31 166.75 47.22C166.67 47.13 166.53 47.08 166.33 47.08H166.23C166.23 47.08 166.16 47.08 166.12 47.09C165.96 47.12 165.79 47.22 165.6 47.38C165.41 47.55 165.23 47.75 165.06 47.97C164.89 48.2 164.74 48.43 164.63 48.65C164.52 48.87 164.46 49.06 164.45 49.21C164.44 49.36 164.44 49.51 164.44 49.65V50.08C164.44 50.58 164.44 51.09 164.44 51.59C164.44 52.09 164.44 52.59 164.44 53.09C164.44 53.23 164.5 53.33 164.61 53.39C164.73 53.45 164.85 53.48 164.97 53.48C165.06 53.48 165.16 53.48 165.25 53.47C165.34 53.47 165.44 53.46 165.53 53.46C165.58 53.46 165.61 53.48 165.63 53.52C165.65 53.56 165.66 53.6 165.66 53.64C165.66 53.79 165.59 53.86 165.44 53.86C165.16 53.86 164.88 53.86 164.6 53.84C164.32 53.83 164.04 53.82 163.76 53.82C163.48 53.82 163.18 53.82 162.88 53.85C162.58 53.88 162.29 53.88 161.99 53.88C161.95 53.88 161.93 53.85 161.91 53.8C161.9 53.74 161.89 53.7 161.89 53.66C161.89 53.57 161.93 53.51 162 53.51C162.1 53.49 162.21 53.49 162.32 53.5C162.43 53.5 162.53 53.51 162.63 53.51C162.77 53.51 162.88 53.48 162.97 53.42C163.06 53.36 163.11 53.25 163.12 53.11C163.14 52.81 163.15 52.51 163.15 52.2C163.15 51.89 163.15 51.58 163.15 51.28V49.92C163.15 49.52 163.14 49.12 163.15 48.72C163.15 48.32 163.14 47.93 163.1 47.54C163.1 47.35 163.04 47.22 162.95 47.14C162.86 47.06 162.72 47.02 162.53 47.02C162.46 47.02 162.38 47.02 162.3 47.04C162.22 47.05 162.14 47.06 162.05 47.06C161.97 47.06 161.94 47 161.94 46.89C161.94 46.83 161.97 46.78 162.04 46.75C162.13 46.72 162.23 46.7 162.33 46.69C162.43 46.68 162.53 46.66 162.62 46.65C162.87 46.6 163.12 46.56 163.38 46.51C163.63 46.46 163.88 46.41 164.14 46.34C164.22 46.37 164.28 46.42 164.32 46.49C164.34 46.53 164.35 46.63 164.36 46.8C164.36 46.97 164.37 47.16 164.37 47.38V48.4C164.58 48.07 164.81 47.75 165.07 47.42C165.33 47.09 165.63 46.82 165.97 46.61C166.31 46.4 166.68 46.29 167.1 46.29C167.32 46.29 167.47 46.36 167.53 46.5C167.59 46.64 167.64 46.8 167.66 46.99C167.68 47.09 167.7 47.2 167.71 47.31C167.72 47.42 167.73 47.53 167.73 47.63L167.75 47.62Z" fill="white"/>
<path d="M178 52.1399C178 52.1399 178 52.2099 177.97 52.2199C177.94 52.3099 177.87 52.4299 177.77 52.5599C177.66 52.6899 177.54 52.8099 177.41 52.9299C177.28 53.0499 177.17 53.1299 177.09 53.1899C176.78 53.3999 176.43 53.5799 176.05 53.7099C175.66 53.8399 175.28 53.9099 174.89 53.9099C174.57 53.9099 174.22 53.8599 173.83 53.7599C173.44 53.6599 173.11 53.5199 172.84 53.3399C172.32 52.9899 171.93 52.5399 171.69 51.9799C171.45 51.4199 171.33 50.8399 171.33 50.2299C171.33 49.5399 171.46 48.8999 171.74 48.3099C172.01 47.7199 172.44 47.2499 173.04 46.8799C173.31 46.7199 173.61 46.5899 173.95 46.4799C174.29 46.3699 174.61 46.3199 174.92 46.3199C175.47 46.3199 175.96 46.4299 176.38 46.6599C176.8 46.8799 177.13 47.1999 177.37 47.5999C177.61 48.0099 177.73 48.4899 177.73 49.0499C177.73 49.2099 177.69 49.3099 177.63 49.3599C177.56 49.4099 177.46 49.4299 177.31 49.4299C177.12 49.4299 176.94 49.4299 176.75 49.4199C176.56 49.4199 176.38 49.3999 176.19 49.3899C175.93 49.3699 175.67 49.3599 175.41 49.3599H173.68C173.36 49.3599 173.05 49.3599 172.73 49.3899C172.73 49.5399 172.71 49.6799 172.7 49.8199C172.7 49.9599 172.69 50.1099 172.69 50.2499C172.69 50.5999 172.73 50.9499 172.82 51.3199C172.91 51.6899 173.04 52.0299 173.23 52.3399C173.42 52.6499 173.65 52.8999 173.94 53.0999C174.23 53.2999 174.58 53.3899 174.99 53.3899C175.4 53.3899 175.81 53.3199 176.19 53.1899C176.57 53.0599 176.92 52.8499 177.24 52.5599C177.32 52.4799 177.4 52.3899 177.47 52.2899C177.54 52.1899 177.62 52.1099 177.7 52.0299C177.75 51.9799 177.8 51.9599 177.85 51.9599C177.9 51.9599 177.93 51.9799 177.96 52.0199C177.99 52.0599 178 52.0999 178 52.1499V52.1399ZM176.39 48.9299C176.39 48.5499 176.35 48.1799 176.29 47.8299C176.23 47.4799 176.1 47.1899 175.88 46.9599C175.66 46.7299 175.32 46.6199 174.83 46.6199C174.39 46.6199 174.03 46.7399 173.76 46.9799C173.48 47.2199 173.27 47.5199 173.12 47.8799C172.97 48.2399 172.86 48.6099 172.78 48.9799C173.01 48.9799 173.24 48.9999 173.47 48.9999C173.69 48.9999 173.92 48.9999 174.14 48.9999C174.51 48.9999 174.89 48.9999 175.26 48.9799C175.63 48.9699 176.01 48.9499 176.38 48.9299H176.39Z" fill="white"/>
<path d="M195.44 50.19C195.44 50.89 195.27 51.52 194.94 52.08C194.61 52.64 194.16 53.08 193.6 53.41C193.04 53.74 192.4 53.9 191.7 53.9C191 53.9 190.4 53.73 189.85 53.4C189.3 53.07 188.86 52.63 188.53 52.07C188.2 51.51 188.04 50.9 188.04 50.22C188.04 49.54 188.2 48.87 188.52 48.28C188.84 47.69 189.27 47.21 189.83 46.84C190.39 46.47 191.03 46.29 191.75 46.29C192.53 46.29 193.2 46.46 193.75 46.79C194.3 47.12 194.72 47.58 195 48.16C195.29 48.74 195.43 49.42 195.43 50.18L195.44 50.19ZM194 50.15C194 49.75 193.97 49.34 193.91 48.94C193.85 48.53 193.74 48.16 193.57 47.81C193.41 47.46 193.17 47.19 192.86 46.98C192.55 46.77 192.15 46.67 191.66 46.67C191.19 46.67 190.81 46.78 190.52 47.01C190.23 47.23 190 47.52 189.83 47.88C189.67 48.23 189.55 48.62 189.49 49.03C189.43 49.44 189.4 49.83 189.4 50.19C189.4 50.59 189.43 50.99 189.49 51.39C189.55 51.79 189.66 52.15 189.83 52.47C190 52.79 190.24 53.05 190.55 53.25C190.86 53.45 191.27 53.54 191.76 53.54C192.25 53.54 192.64 53.44 192.93 53.23C193.22 53.02 193.45 52.75 193.6 52.42C193.75 52.08 193.86 51.72 193.91 51.32C193.96 50.92 193.99 50.53 193.99 50.15H194Z" fill="white"/>
<path d="M207.52 53.64C207.52 53.76 207.45 53.82 207.31 53.82C207.1 53.82 206.89 53.82 206.68 53.8C206.47 53.79 206.25 53.78 206.04 53.78C205.72 53.78 205.4 53.78 205.07 53.8C204.74 53.81 204.41 53.82 204.08 53.82C204.04 53.82 204.02 53.79 204.01 53.73C204.01 53.67 204 53.62 204 53.58C204 53.51 204.05 53.47 204.14 53.47H204.36C204.36 53.47 204.46 53.47 204.51 53.47C204.56 53.47 204.61 53.47 204.66 53.47C204.93 53.47 205.08 53.33 205.11 53.06C205.14 52.51 205.15 51.95 205.15 51.39C205.15 50.83 205.15 50.27 205.15 49.72V49.09C205.15 48.88 205.13 48.61 205.11 48.3C205.09 47.99 205.05 47.73 204.98 47.54C204.83 47.06 204.5 46.81 204 46.81C203.54 46.81 203.12 46.93 202.74 47.16C202.36 47.39 202.03 47.69 201.75 48.04C201.75 48.72 201.74 49.4 201.74 50.07V53.05C201.74 53.19 201.8 53.29 201.92 53.36C202.04 53.43 202.16 53.46 202.28 53.46C202.36 53.46 202.43 53.46 202.5 53.44C202.57 53.43 202.64 53.42 202.7 53.42C202.74 53.42 202.76 53.44 202.77 53.49C202.77 53.54 202.78 53.57 202.78 53.6C202.78 53.64 202.77 53.68 202.74 53.73C202.72 53.78 202.68 53.8 202.62 53.8C202.41 53.8 202.21 53.8 202.01 53.78C201.81 53.77 201.61 53.76 201.4 53.76C201.08 53.76 200.77 53.76 200.45 53.78C200.13 53.79 199.81 53.8 199.48 53.8C199.43 53.8 199.41 53.77 199.4 53.71C199.4 53.65 199.4 53.6 199.4 53.56C199.4 53.49 199.44 53.45 199.53 53.45H199.73C199.73 53.45 199.82 53.45 199.87 53.45C199.92 53.45 199.96 53.45 200.01 53.45C200.28 53.45 200.43 53.31 200.46 53.04C200.46 52.91 200.47 52.78 200.47 52.65V49.84C200.47 49.03 200.47 48.23 200.46 47.43C200.46 47.3 200.43 47.17 200.38 47.04C200.32 46.91 200.22 46.84 200.06 46.84C199.94 46.84 199.82 46.86 199.71 46.9C199.6 46.94 199.48 46.96 199.36 46.96C199.29 46.96 199.26 46.91 199.26 46.82C199.26 46.8 199.26 46.78 199.26 46.76C199.26 46.74 199.27 46.72 199.28 46.71C199.28 46.71 199.3 46.69 199.32 46.69C199.34 46.69 199.35 46.68 199.36 46.67C199.53 46.62 199.7 46.59 199.89 46.57C200.08 46.55 200.25 46.52 200.42 46.49C200.58 46.46 200.73 46.42 200.88 46.37C201.03 46.32 201.18 46.29 201.33 46.29C201.4 46.29 201.45 46.32 201.48 46.39C201.53 46.47 201.56 46.59 201.59 46.75C201.62 46.9 201.64 47.06 201.65 47.22C201.66 47.38 201.67 47.51 201.67 47.61C201.88 47.4 202.12 47.2 202.4 47C202.69 46.8 202.98 46.63 203.3 46.5C203.61 46.36 203.92 46.3 204.22 46.3C205.08 46.3 205.66 46.49 205.96 46.87C206.26 47.25 206.42 47.84 206.42 48.65C206.42 49.38 206.42 50.11 206.42 50.83C206.42 51.56 206.42 52.29 206.42 53.01C206.42 53.19 206.47 53.31 206.58 53.37C206.69 53.43 206.82 53.46 206.96 53.46C207.04 53.46 207.11 53.46 207.18 53.44C207.25 53.43 207.32 53.42 207.39 53.42C207.45 53.42 207.49 53.44 207.51 53.48C207.53 53.52 207.55 53.57 207.55 53.61L207.52 53.64Z" fill="white"/>
<path d="M216.33 51.85C216.33 52.27 216.24 52.61 216.05 52.88C215.86 53.15 215.62 53.35 215.32 53.49C215.02 53.63 214.7 53.73 214.34 53.78C213.98 53.84 213.64 53.86 213.3 53.86C212.99 53.86 212.69 53.83 212.38 53.76C212.08 53.69 211.77 53.65 211.46 53.62C211.39 53.37 211.33 53.12 211.27 52.86C211.21 52.6 211.14 52.36 211.07 52.12C211.07 52.09 211.04 52.03 211.01 51.92C210.98 51.82 210.96 51.76 210.96 51.75C210.96 51.68 210.98 51.62 211.03 51.59C211.08 51.56 211.13 51.54 211.2 51.54C211.27 51.54 211.31 51.56 211.34 51.61C211.4 51.68 211.44 51.76 211.49 51.88C211.54 52 211.57 52.09 211.61 52.17C211.69 52.32 211.75 52.43 211.81 52.51C211.87 52.59 211.95 52.69 212.08 52.81C212.44 53.19 212.9 53.38 213.44 53.38C213.74 53.38 214.01 53.35 214.26 53.28C214.51 53.21 214.71 53.09 214.86 52.91C215.01 52.73 215.08 52.46 215.08 52.12C215.08 51.82 214.99 51.57 214.8 51.37C214.61 51.17 214.37 50.99 214.08 50.83C213.79 50.67 213.48 50.52 213.15 50.37C212.82 50.22 212.51 50.06 212.22 49.87C211.93 49.68 211.69 49.47 211.5 49.2C211.31 48.94 211.22 48.62 211.22 48.25C211.22 47.79 211.34 47.42 211.58 47.13C211.82 46.84 212.12 46.62 212.5 46.48C212.87 46.33 213.26 46.26 213.66 46.26C213.92 46.26 214.16 46.29 214.37 46.36C214.58 46.43 214.8 46.5 215.04 46.58C215.11 46.61 215.19 46.63 215.26 46.64C215.34 46.64 215.41 46.65 215.48 46.65H215.61C215.61 46.65 215.68 46.65 215.72 46.64C215.75 46.81 215.77 46.98 215.8 47.15C215.83 47.32 215.84 47.5 215.86 47.67C215.86 47.74 215.88 47.81 215.89 47.9C215.9 47.99 215.91 48.07 215.91 48.15C215.91 48.22 215.9 48.28 215.87 48.35C215.84 48.42 215.79 48.45 215.7 48.45C215.63 48.45 215.58 48.45 215.54 48.43C215.5 48.42 215.46 48.38 215.44 48.31C215.39 48.22 215.35 48.12 215.32 48.01C215.29 47.9 215.25 47.8 215.21 47.71C215.09 47.38 214.88 47.12 214.58 46.92C214.28 46.72 213.96 46.62 213.61 46.62C213.17 46.62 212.84 46.75 212.62 47C212.4 47.26 212.28 47.6 212.28 48.03C212.28 48.18 212.32 48.32 212.4 48.46C212.48 48.6 212.57 48.72 212.67 48.82C212.87 49.01 213.1 49.15 213.36 49.25C213.63 49.35 213.88 49.46 214.12 49.56C214.44 49.7 214.77 49.87 215.11 50.06C215.45 50.26 215.74 50.49 215.98 50.77C216.22 51.05 216.34 51.39 216.34 51.79L216.33 51.85Z" fill="white"/>
<path d="M226.9 52.1399C226.9 52.1399 226.9 52.2099 226.87 52.2199C226.84 52.3099 226.77 52.4299 226.67 52.5599C226.56 52.6899 226.44 52.8099 226.31 52.9299C226.18 53.0499 226.07 53.1299 225.99 53.1899C225.68 53.3999 225.33 53.5799 224.95 53.7099C224.56 53.8399 224.18 53.9099 223.79 53.9099C223.47 53.9099 223.12 53.8599 222.73 53.7599C222.34 53.6599 222.01 53.5199 221.74 53.3399C221.22 52.9899 220.83 52.5399 220.59 51.9799C220.35 51.4199 220.23 50.8399 220.23 50.2299C220.23 49.5399 220.36 48.8999 220.64 48.3099C220.91 47.7199 221.34 47.2499 221.94 46.8799C222.21 46.7199 222.51 46.5899 222.85 46.4799C223.19 46.3699 223.51 46.3199 223.82 46.3199C224.37 46.3199 224.86 46.4299 225.28 46.6599C225.7 46.8799 226.03 47.1999 226.27 47.5999C226.51 48.0099 226.63 48.4899 226.63 49.0499C226.63 49.2099 226.59 49.3099 226.53 49.3599C226.46 49.4099 226.36 49.4299 226.21 49.4299C226.02 49.4299 225.84 49.4299 225.65 49.4199C225.46 49.4199 225.28 49.3999 225.09 49.3899C224.83 49.3699 224.57 49.3599 224.31 49.3599H222.58C222.26 49.3599 221.95 49.3599 221.63 49.3899C221.63 49.5399 221.61 49.6799 221.6 49.8199C221.6 49.9599 221.59 50.1099 221.59 50.2499C221.59 50.5999 221.63 50.9499 221.72 51.3199C221.81 51.6899 221.94 52.0299 222.13 52.3399C222.32 52.6499 222.55 52.8999 222.84 53.0999C223.13 53.2999 223.48 53.3899 223.89 53.3899C224.3 53.3899 224.71 53.3199 225.09 53.1899C225.47 53.0599 225.82 52.8499 226.14 52.5599C226.22 52.4799 226.3 52.3899 226.37 52.2899C226.44 52.1899 226.52 52.1099 226.6 52.0299C226.65 51.9799 226.7 51.9599 226.75 51.9599C226.8 51.9599 226.83 51.9799 226.86 52.0199C226.89 52.0599 226.9 52.0999 226.9 52.1499V52.1399ZM225.29 48.9299C225.29 48.5499 225.25 48.1799 225.19 47.8299C225.13 47.4799 225 47.1899 224.78 46.9599C224.56 46.7299 224.22 46.6199 223.73 46.6199C223.29 46.6199 222.93 46.7399 222.66 46.9799C222.38 47.2199 222.17 47.5199 222.02 47.8799C221.87 48.2399 221.76 48.6099 221.68 48.9799C221.91 48.9799 222.14 48.9999 222.37 48.9999C222.59 48.9999 222.82 48.9999 223.04 48.9999C223.41 48.9999 223.79 48.9999 224.16 48.9799C224.53 48.9699 224.91 48.9499 225.28 48.9299H225.29Z" fill="white"/>
<path d="M238.64 53.64C238.64 53.76 238.57 53.82 238.43 53.82C238.22 53.82 238.01 53.82 237.8 53.8C237.59 53.79 237.37 53.78 237.16 53.78C236.84 53.78 236.52 53.78 236.19 53.8C235.86 53.81 235.53 53.82 235.2 53.82C235.16 53.82 235.14 53.79 235.13 53.73C235.13 53.67 235.12 53.62 235.12 53.58C235.12 53.51 235.17 53.47 235.26 53.47H235.48C235.48 53.47 235.58 53.47 235.63 53.47C235.68 53.47 235.73 53.47 235.78 53.47C236.05 53.47 236.2 53.33 236.23 53.06C236.26 52.51 236.27 51.95 236.27 51.39C236.27 50.83 236.27 50.27 236.27 49.72V49.09C236.27 48.88 236.25 48.61 236.23 48.3C236.21 47.99 236.17 47.73 236.1 47.54C235.95 47.06 235.62 46.81 235.12 46.81C234.66 46.81 234.24 46.93 233.86 47.16C233.48 47.39 233.15 47.69 232.87 48.04C232.87 48.72 232.86 49.4 232.86 50.07V53.05C232.86 53.19 232.92 53.29 233.04 53.36C233.16 53.43 233.28 53.46 233.4 53.46C233.47 53.46 233.55 53.46 233.62 53.44C233.69 53.43 233.76 53.42 233.82 53.42C233.86 53.42 233.88 53.44 233.89 53.49C233.89 53.54 233.9 53.57 233.9 53.6C233.9 53.64 233.89 53.68 233.86 53.73C233.84 53.78 233.8 53.8 233.74 53.8C233.53 53.8 233.33 53.8 233.13 53.78C232.93 53.77 232.73 53.76 232.52 53.76C232.2 53.76 231.89 53.76 231.57 53.78C231.25 53.79 230.93 53.8 230.6 53.8C230.55 53.8 230.53 53.77 230.52 53.71C230.52 53.65 230.52 53.6 230.52 53.56C230.52 53.49 230.56 53.45 230.65 53.45H230.85C230.85 53.45 230.94 53.45 230.99 53.45C231.04 53.45 231.08 53.45 231.13 53.45C231.4 53.45 231.55 53.31 231.58 53.04C231.58 52.91 231.59 52.78 231.59 52.65V49.84C231.59 49.03 231.59 48.23 231.58 47.43C231.58 47.3 231.55 47.17 231.5 47.04C231.45 46.91 231.34 46.84 231.18 46.84C231.06 46.84 230.94 46.86 230.83 46.9C230.72 46.94 230.6 46.96 230.48 46.96C230.41 46.96 230.38 46.91 230.38 46.82C230.38 46.8 230.38 46.78 230.38 46.76C230.38 46.74 230.39 46.72 230.4 46.71C230.4 46.71 230.42 46.69 230.44 46.69C230.46 46.69 230.47 46.68 230.48 46.67C230.65 46.62 230.82 46.59 231 46.57C231.18 46.55 231.36 46.52 231.53 46.49C231.69 46.46 231.84 46.42 231.99 46.37C232.14 46.32 232.29 46.29 232.44 46.29C232.51 46.29 232.56 46.32 232.59 46.39C232.64 46.47 232.67 46.59 232.7 46.75C232.73 46.9 232.75 47.06 232.76 47.22C232.77 47.38 232.78 47.51 232.78 47.61C232.99 47.4 233.23 47.2 233.52 47C233.8 46.8 234.1 46.63 234.42 46.5C234.73 46.36 235.04 46.3 235.34 46.3C236.2 46.3 236.78 46.49 237.08 46.87C237.38 47.25 237.54 47.84 237.54 48.65C237.54 49.38 237.54 50.11 237.54 50.83C237.54 51.55 237.54 52.29 237.54 53.01C237.54 53.19 237.59 53.31 237.7 53.37C237.81 53.43 237.94 53.46 238.08 53.46C238.15 53.46 238.23 53.46 238.3 53.44C238.38 53.43 238.44 53.42 238.51 53.42C238.57 53.42 238.61 53.44 238.63 53.48C238.65 53.52 238.67 53.57 238.67 53.61L238.64 53.64Z" fill="white"/>
<path d="M103.76 18.86C103.76 19.04 103.65 19.21 103.42 19.38C103.2 19.55 103.02 19.69 102.89 19.8C102.73 20.74 102.46 21.72 102.09 22.73C101.72 23.74 101.27 24.71 100.75 25.63C100.23 26.56 99.66 27.39 99.03 28.13C98.29 29.01 97.44 29.77 96.46 30.4C95.48 31.03 94.47 31.55 93.41 31.96C92.35 32.37 91.32 32.68 90.31 32.88C90.09 32.93 89.84 32.97 89.57 33.01C89.3 33.05 89.04 33.09 88.8 33.12C88.74 33.14 88.68 33.11 88.64 33.04C88.6 32.97 88.61 32.92 88.68 32.91C88.76 32.88 88.87 32.85 89 32.83C89.14 32.81 89.27 32.78 89.4 32.75C89.58 32.7 89.76 32.65 89.96 32.59C90.16 32.53 90.32 32.47 90.43 32.41C91.89 31.82 93.23 31.06 94.47 30.14C95.71 29.22 96.79 28.09 97.72 26.74C98.17 26.08 98.59 25.31 98.99 24.41C99.39 23.51 99.72 22.6 99.99 21.67C100.25 20.74 100.39 19.9 100.39 19.15C100.39 18.86 100.3 18.67 100.11 18.56C99.93 18.46 99.68 18.41 99.38 18.43C98.61 18.48 97.74 18.56 96.76 18.67C95.78 18.78 94.81 18.91 93.84 19.07C92.87 19.22 92 19.39 91.24 19.59C91.27 20.12 91.3 20.68 91.32 21.28C91.34 21.88 91.41 22.46 91.52 23.02C91.55 23.13 91.58 23.25 91.6 23.38C91.62 23.51 91.64 23.64 91.64 23.76C91.64 23.97 91.62 24.17 91.59 24.36C91.56 24.55 91.49 24.75 91.4 24.96C91.21 25.38 90.94 25.58 90.58 25.58C90.42 25.58 90.24 25.48 90.04 25.29C89.84 25.1 89.67 24.87 89.54 24.61C89.4 24.35 89.34 24.13 89.34 23.95C89.34 23.82 89.34 23.69 89.35 23.57C89.35 23.44 89.36 23.31 89.36 23.19C89.36 22.47 89.33 21.74 89.26 20.99C89.2 20.25 89.1 19.53 88.97 18.84C88.92 18.54 88.83 18.28 88.69 18.06C88.55 17.84 88.35 17.66 88.08 17.5C88.4 17.31 88.74 17.21 89.09 17.21C89.27 17.21 89.49 17.28 89.76 17.43C90.03 17.58 90.29 17.75 90.54 17.95C90.79 18.15 90.97 18.35 91.08 18.54C91.67 18.48 92.27 18.4 92.88 18.32C93.49 18.24 94.09 18.17 94.68 18.1C94.66 17.65 94.65 17.22 94.63 16.79C94.61 16.37 94.57 15.95 94.51 15.53C94.45 15.08 94.32 14.73 94.14 14.49C93.96 14.24 93.62 14.09 93.14 14.02C93.32 13.76 93.58 13.56 93.92 13.4C94.26 13.24 94.56 13.16 94.8 13.16C95.06 13.16 95.38 13.23 95.77 13.38C96.16 13.52 96.51 13.72 96.81 13.97C97.11 14.22 97.27 14.52 97.27 14.87C97.27 15 97.25 15.09 97.21 15.15C97.17 15.21 97.12 15.28 97.05 15.38C96.95 15.56 96.87 15.8 96.8 16.12C96.73 16.44 96.66 16.76 96.6 17.09C96.54 17.42 96.47 17.7 96.41 17.94C96.71 17.91 97.04 17.86 97.39 17.81C97.74 17.75 98.08 17.69 98.4 17.63C98.72 17.55 98.98 17.48 99.19 17.43C99.4 17.38 99.61 17.29 99.81 17.18C99.89 17.13 99.97 17.09 100.04 17.06C100.11 17.03 100.18 16.98 100.24 16.92C100.34 16.84 100.46 16.8 100.6 16.8C100.79 16.8 101.06 16.86 101.39 16.99C101.72 17.12 102.07 17.28 102.43 17.48C102.79 17.68 103.09 17.9 103.34 18.14C103.59 18.38 103.71 18.63 103.71 18.88L103.76 18.86Z" fill="white"/>
<path d="M127.14 29.38C127.14 29.65 127.05 29.85 126.86 29.97C126.68 30.09 126.47 30.15 126.25 30.15C126.17 30.15 126.09 30.15 126.01 30.14C125.93 30.14 125.85 30.12 125.77 30.1C125.72 30.08 125.68 30.08 125.64 30.08C125.6 30.08 125.56 30.08 125.51 30.06C125.41 30.03 125.33 30.01 125.25 30.01C124.47 29.83 123.67 29.73 122.85 29.7C122.03 29.67 121.23 29.65 120.43 29.65C120.29 29.65 120.14 29.65 120 29.66C119.86 29.66 119.71 29.68 119.57 29.7C118.98 29.75 118.36 29.81 117.72 29.89C117.08 29.97 116.46 30.07 115.85 30.2C115.5 30.26 115.14 30.34 114.78 30.44C114.42 30.54 114.07 30.68 113.74 30.87C113.69 30.89 113.65 30.91 113.61 30.93C113.57 30.95 113.53 30.97 113.48 30.99C113.43 31.02 113.36 31.04 113.26 31.04C113.2 31.04 113.12 31.02 113.03 30.99C112.94 30.96 112.86 30.93 112.78 30.89C112.67 30.84 112.56 30.8 112.44 30.76C112.33 30.72 112.22 30.68 112.1 30.63C111.99 30.58 111.88 30.53 111.79 30.49C111.69 30.44 111.61 30.39 111.53 30.32C111.32 30.16 111.17 29.95 111.07 29.7C111.04 29.62 111.01 29.5 110.97 29.35C110.94 29.2 110.91 29.07 110.9 28.95C110.88 28.9 110.9 28.87 110.94 28.87C110.98 28.87 111.02 28.87 111.05 28.91C111.31 29.05 111.57 29.16 111.85 29.22C112.13 29.28 112.41 29.32 112.68 29.32C112.76 29.32 112.83 29.32 112.9 29.31C112.96 29.31 113.03 29.3 113.09 29.3C113.94 29.24 114.78 29.17 115.61 29.11C116.44 29.05 117.29 28.97 118.15 28.89C118.17 28.62 118.18 28.23 118.19 27.73C118.2 27.23 118.21 26.73 118.23 26.23C118.25 25.73 118.25 25.37 118.25 25.15V24.53C118.25 24.34 118.21 24.16 118.13 24C118.07 23.82 117.96 23.68 117.81 23.57C117.66 23.46 117.41 23.4 117.05 23.4C116.89 23.4 116.73 23.42 116.58 23.46C116.43 23.5 116.27 23.54 116.11 23.59C116.08 23.61 116.04 23.62 116 23.63C115.96 23.63 115.92 23.65 115.89 23.67C115.83 23.7 115.76 23.72 115.7 23.72C115.64 23.74 115.57 23.75 115.51 23.76C115.45 23.76 115.38 23.77 115.32 23.77C115.1 23.77 114.86 23.67 114.61 23.46C114.36 23.25 114.15 23 113.97 22.72C113.79 22.43 113.67 22.17 113.61 21.93C113.91 22.04 114.25 22.11 114.61 22.15C114.97 22.18 115.3 22.2 115.61 22.2C115.74 22.2 115.86 22.2 115.97 22.19C116.08 22.19 116.19 22.17 116.31 22.15C116.44 22.13 116.56 22.12 116.67 22.1L117.01 22.05C117.7 21.95 118.37 21.84 119.03 21.71C119.69 21.58 120.34 21.43 121 21.25C121.05 21.22 121.2 21.17 121.44 21.09C121.69 21.02 121.84 20.97 121.91 20.96C122.18 20.96 122.52 21 122.93 21.09C123.34 21.18 123.65 21.31 123.85 21.49C123.98 21.59 124.07 21.68 124.13 21.78C124.19 21.88 124.21 22.01 124.21 22.19C124.21 22.35 124.11 22.49 123.92 22.6C123.73 22.71 123.58 22.77 123.49 22.77C123.2 22.77 122.9 22.75 122.58 22.7C122.52 22.7 122.44 22.7 122.36 22.69C122.28 22.69 122.2 22.67 122.12 22.65C122.04 22.65 121.96 22.65 121.87 22.64C121.78 22.64 121.7 22.63 121.62 22.63C121.17 22.63 120.72 22.65 120.26 22.69C119.8 22.73 119.33 22.79 118.83 22.87C118.91 22.89 118.99 22.91 119.07 22.93C119.15 22.95 119.23 22.98 119.31 23.01C119.39 23.03 119.47 23.05 119.56 23.08C119.65 23.11 119.74 23.15 119.84 23.2C120.02 23.26 120.16 23.34 120.28 23.44C120.4 23.54 120.46 23.65 120.46 23.78C120.46 23.88 120.44 23.96 120.39 24.04C120.34 24.12 120.28 24.2 120.2 24.28C120.09 25.02 120 25.75 119.92 26.49C119.85 27.23 119.77 27.96 119.69 28.7C120.35 28.64 121.01 28.56 121.68 28.46C122.35 28.36 123 28.24 123.62 28.08C123.73 27.97 123.84 27.9 123.94 27.89C124.04 27.87 124.14 27.87 124.24 27.87C124.42 27.87 124.68 27.91 125.02 28C125.36 28.09 125.71 28.2 126.05 28.34C126.39 28.48 126.64 28.62 126.78 28.76C126.88 28.86 126.96 28.96 127.03 29.06C127.1 29.16 127.14 29.29 127.14 29.43V29.38Z" fill="white"/>
<path d="M140.56 19.27C140.7 19.45 140.79 19.63 140.82 19.83C140.85 20.03 140.76 20.22 140.53 20.39C140.26 22.57 139.69 24.53 138.84 26.28C137.98 28.03 136.65 29.48 134.84 30.61C134.49 30.83 134.11 31.05 133.7 31.25C133.29 31.45 132.83 31.61 132.32 31.74C132.21 31.76 132.14 31.74 132.1 31.68C132.07 31.62 132.1 31.57 132.22 31.52C132.52 31.38 132.89 31.15 133.32 30.85C133.75 30.55 134.1 30.27 134.38 30.01C135.16 29.24 135.84 28.31 136.42 27.21C137 26.11 137.44 24.97 137.76 23.77C138.08 22.57 138.24 21.43 138.24 20.36C138.24 19.93 138.14 19.55 137.94 19.22C137.74 18.89 137.43 18.67 137.02 18.56C136.99 18.54 136.97 18.52 136.97 18.5C136.97 18.48 136.97 18.46 136.99 18.44C137.17 18.33 137.38 18.22 137.64 18.13C137.9 18.04 138.12 17.99 138.31 17.99C138.66 17.99 139.06 18.12 139.51 18.39C139.96 18.65 140.3 18.95 140.54 19.27H140.56ZM154.67 19.34C154.22 20.33 153.7 21.38 153.11 22.47C152.52 23.57 151.85 24.54 151.09 25.39C150.26 26.32 149.3 27.17 148.21 27.93C147.12 28.69 146.05 29.31 144.99 29.78C144.8 29.94 144.65 30.07 144.53 30.16C144.42 30.26 144.25 30.29 144.03 30.26C143.87 30.23 143.69 30.09 143.48 29.84C143.27 29.59 143.08 29.33 142.9 29.06C142.74 28.82 142.61 28.59 142.5 28.38C142.4 28.16 142.34 27.98 142.34 27.82C142.34 27.74 142.4 27.66 142.51 27.59C142.62 27.52 142.72 27.43 142.8 27.31C142.85 27.23 142.89 27.14 142.93 27.05C142.97 26.95 143 26.86 143.01 26.76C143.09 25.72 143.14 24.61 143.17 23.44C143.19 22.26 143.2 21.16 143.18 20.14C143.16 19.5 143.14 18.92 143.12 18.4C143.1 17.88 143.04 17.52 142.96 17.31C142.86 17.04 142.7 16.82 142.46 16.66C142.22 16.5 141.93 16.37 141.6 16.28C141.57 16.28 141.54 16.26 141.5 16.23C141.47 16.2 141.48 16.16 141.55 16.11C141.77 15.95 142.05 15.82 142.38 15.73C142.71 15.63 142.98 15.59 143.18 15.59C143.34 15.59 143.58 15.66 143.89 15.79C144.2 15.93 144.53 16.09 144.86 16.29C145.19 16.49 145.48 16.7 145.72 16.93C145.96 17.15 146.08 17.35 146.08 17.53C146.08 17.72 146 17.91 145.84 18.11C145.68 18.3 145.56 18.49 145.48 18.69C145.42 18.85 145.34 19.11 145.26 19.46C145.18 19.81 145.12 20.21 145.09 20.66C145.06 21.19 145.02 21.78 144.97 22.44C144.92 23.1 144.87 23.75 144.83 24.41C144.78 25.07 144.74 25.65 144.71 26.16C144.68 26.67 144.66 27.04 144.66 27.26C145.68 27.04 146.77 26.54 147.91 25.76C149.05 24.98 150.14 24.08 151.16 23.06C151.77 22.45 152.37 21.78 152.97 21.06C153.57 20.33 154.02 19.7 154.33 19.15C154.41 19.01 154.5 18.97 154.59 19.04C154.69 19.11 154.7 19.22 154.64 19.36L154.67 19.34Z" fill="white"/>
<path d="M178.09 19.42C178.09 19.66 178 19.86 177.81 20.01C177.63 20.16 177.45 20.24 177.27 20.24C177.16 20.24 177.01 20.22 176.84 20.17C176.79 20.15 176.74 20.15 176.7 20.15C176.66 20.15 176.6 20.15 176.56 20.13C176.53 20.13 176.49 20.13 176.44 20.12C176.39 20.12 176.34 20.11 176.3 20.11C175.8 20.03 175.31 19.97 174.81 19.93C174.31 19.89 173.81 19.87 173.3 19.87C173.09 19.87 172.88 19.87 172.66 19.88C172.44 19.88 172.23 19.9 172.02 19.92C171.81 19.94 171.6 19.95 171.4 19.97C171.19 19.99 170.95 20.01 170.68 20.04C170.87 20.1 171.16 20.26 171.53 20.52C171.9 20.78 172.21 21.02 172.43 21.24C172.67 21.48 172.7 21.73 172.53 21.98C172.5 22.03 172.45 22.08 172.4 22.15C172.34 22.21 172.31 22.26 172.29 22.29C172.23 22.58 172.14 22.91 172.04 23.3C171.94 23.68 171.82 24.05 171.69 24.4C171.21 25.66 170.65 26.76 170.01 27.69C169.37 28.62 168.61 29.42 167.72 30.09C166.83 30.76 165.76 31.35 164.49 31.84C164.38 31.89 164.25 31.94 164.09 32.01C163.94 32.07 163.8 32.13 163.67 32.18C163.53 32.23 163.37 32.28 163.21 32.34C163.05 32.4 162.89 32.45 162.73 32.5C162.54 32.55 162.38 32.58 162.25 32.61C162.12 32.63 161.95 32.66 161.72 32.69C161.69 32.71 161.66 32.69 161.65 32.67C161.63 32.64 161.65 32.61 161.7 32.6C161.86 32.54 162.02 32.47 162.18 32.41C162.34 32.35 162.5 32.28 162.66 32.22C163.92 31.61 165.04 30.8 166.01 29.8C166.98 28.79 167.78 27.66 168.42 26.42C168.66 25.94 168.89 25.38 169.12 24.75C169.34 24.12 169.53 23.49 169.67 22.88C169.81 22.26 169.89 21.75 169.89 21.33C169.89 20.99 169.8 20.75 169.61 20.61C169.42 20.47 169.19 20.34 168.9 20.23C168.72 20.26 168.56 20.29 168.4 20.3C168.24 20.32 168.09 20.34 167.94 20.37C167.8 20.4 167.65 20.43 167.5 20.47C167.35 20.5 167.2 20.54 167.06 20.59C167.01 20.61 166.96 20.62 166.92 20.64C166.87 20.66 166.82 20.67 166.78 20.69C166.73 20.71 166.68 20.72 166.64 20.74C166.59 20.76 166.54 20.78 166.5 20.81C166.26 20.89 166.08 20.93 165.97 20.93C165.92 20.93 165.88 20.91 165.84 20.87C165.8 20.83 165.75 20.79 165.68 20.74C165.62 20.69 165.54 20.64 165.46 20.57C165.38 20.5 165.29 20.44 165.2 20.38C164.9 20.76 164.53 21.2 164.1 21.69C163.67 22.18 163.25 22.59 162.85 22.93C162.39 23.33 161.94 23.67 161.52 23.96C161.1 24.25 160.61 24.5 160.07 24.73C160.01 24.75 159.95 24.73 159.91 24.71C159.87 24.68 159.88 24.63 159.95 24.57C160.27 24.3 160.58 24.01 160.87 23.69C161.16 23.37 161.43 23.08 161.67 22.79C162.04 22.34 162.39 21.86 162.74 21.34C163.08 20.82 163.41 20.26 163.71 19.67C164.03 19.06 164.32 18.45 164.57 17.82C164.83 17.2 165.03 16.6 165.17 16.02C165.17 15.99 165.17 15.96 165.18 15.92C165.18 15.89 165.19 15.84 165.19 15.78C165.19 15.43 165.07 15.18 164.83 15.02C164.59 14.87 164.32 14.74 164.01 14.62C164.57 14.2 165.15 14 165.74 14C165.9 14 166.12 14.06 166.4 14.18C166.68 14.3 166.97 14.46 167.28 14.65C167.58 14.84 167.83 15.04 168.02 15.25C168.26 15.49 168.37 15.74 168.36 15.99C168.34 16.1 168.27 16.19 168.14 16.24C168.01 16.3 167.91 16.35 167.83 16.4C167.53 16.91 167.18 17.5 166.8 18.16C166.42 18.82 165.98 19.4 165.5 19.9C166.71 19.76 167.9 19.59 169.04 19.4C170.18 19.21 171.28 18.94 172.34 18.61L173.25 18.32C173.39 18.27 173.55 18.21 173.71 18.13C173.79 18.1 173.87 18.06 173.96 18.02C174.05 17.98 174.13 17.94 174.21 17.91C174.37 17.83 174.51 17.77 174.64 17.72C174.77 17.67 174.89 17.65 175 17.65C175.19 17.65 175.46 17.69 175.8 17.77C176.14 17.85 176.49 17.97 176.84 18.13C177.19 18.29 177.49 18.48 177.73 18.71C177.97 18.93 178.09 19.19 178.09 19.48V19.42Z" fill="white"/>
<path d="M201.97 17.74C201.97 18.11 201.83 18.39 201.54 18.58C201.38 18.68 201.22 18.74 201.06 18.78C200.9 18.82 200.73 18.87 200.56 18.94C200.4 19 200.25 19.08 200.12 19.18C199.98 19.28 199.84 19.37 199.7 19.47C199.01 19.89 198.22 20.29 197.31 20.69C196.41 21.09 195.56 21.4 194.78 21.63C194.73 22.61 194.56 23.6 194.28 24.61C193.99 25.62 193.59 26.57 193.07 27.47C192.55 28.37 191.91 29.14 191.14 29.8C190.72 30.15 190.28 30.48 189.8 30.77C189.32 31.07 188.83 31.3299 188.34 31.5499C187.88 31.7699 187.41 31.96 186.94 32.11C186.47 32.26 185.98 32.3899 185.46 32.4799C185.35 32.4999 185.24 32.5199 185.12 32.5499C185.01 32.5799 184.9 32.5999 184.81 32.5999C184.7 32.5999 184.65 32.58 184.67 32.54C184.69 32.5 184.73 32.46 184.79 32.43C184.93 32.37 185.09 32.3099 185.25 32.2599C185.41 32.2099 185.56 32.16 185.71 32.09C186.08 31.95 186.43 31.78 186.78 31.6C187.12 31.42 187.45 31.2 187.75 30.96C188.71 30.19 189.54 29.28 190.23 28.24C190.93 27.19 191.46 26.06 191.83 24.86C192.2 23.66 192.38 22.44 192.38 21.22C192.38 20.88 192.28 20.6 192.09 20.36C191.98 20.25 191.86 20.14 191.74 20.05C191.62 19.96 191.5 19.87 191.37 19.79C191.45 19.74 191.6 19.67 191.83 19.57C192.05 19.47 192.28 19.39 192.51 19.32C192.74 19.25 192.9 19.21 192.98 19.21C193.49 19.21 193.92 19.4 194.25 19.79C194.43 20 194.6 20.2 194.78 20.4C194.96 20.6 195.12 20.81 195.28 21.04C195.47 20.86 195.72 20.63 196.02 20.34C196.32 20.05 196.63 19.73 196.93 19.37C197.23 19.01 197.49 18.66 197.7 18.31C197.91 17.97 198.01 17.67 198.01 17.41C198.01 17.09 197.88 16.9 197.63 16.85C197.37 16.79 197.13 16.77 196.89 16.77C196.15 16.77 195.33 16.87 194.41 17.06C193.49 17.25 192.58 17.48 191.67 17.76C190.77 18.03 189.95 18.29 189.23 18.53C189.02 18.59 188.81 18.67 188.59 18.77C188.37 18.87 188.17 18.98 187.98 19.11C187.87 19.17 187.75 19.25 187.63 19.33C187.51 19.41 187.38 19.46 187.23 19.47C187.17 19.47 187.1 19.45 187.04 19.42C186.4 19.24 185.84 18.94 185.37 18.5C184.9 18.06 184.66 17.47 184.66 16.74C184.66 16.64 184.66 16.54 184.68 16.43C184.7 16.32 184.73 16.22 184.78 16.14C184.94 16.24 185.1 16.33 185.26 16.42C185.42 16.51 185.58 16.58 185.74 16.62C186.03 16.72 186.5 16.76 187.16 16.75C187.82 16.75 188.56 16.7 189.39 16.63C190.22 16.56 191.06 16.47 191.91 16.37C192.76 16.27 193.54 16.17 194.25 16.07C194.96 15.97 195.52 15.9 195.92 15.85C196.1 15.82 196.27 15.8 196.44 15.79C196.61 15.79 196.77 15.76 196.93 15.73C197.15 15.67 197.4 15.56 197.66 15.42C197.92 15.28 198.15 15.2 198.34 15.2C198.61 15.2 198.95 15.27 199.36 15.42C199.77 15.56 200.17 15.76 200.57 16.01C200.97 16.26 201.31 16.53 201.58 16.84C201.85 17.14 201.99 17.46 201.99 17.78L201.97 17.74Z" fill="white"/>
<path d="M214.14 21.82C214.14 21.93 214.07 21.99 213.92 21.99C213.84 21.99 213.78 21.99 213.73 21.97C213.7 21.97 213.63 21.95 213.54 21.92C212.92 21.66 212.28 21.42 211.64 21.19C211 20.96 210.35 20.75 209.7 20.58C209.89 20.26 210.08 19.93 210.25 19.6C210.43 19.26 210.62 18.94 210.83 18.64C210.88 18.56 210.93 18.49 211 18.42C211.06 18.36 211.14 18.32 211.24 18.32C211.35 18.32 211.51 18.41 211.72 18.58C211.93 18.76 212.15 18.97 212.38 19.22C212.61 19.47 212.82 19.7 213.02 19.92C213.21 20.14 213.34 20.29 213.4 20.39C213.53 20.55 213.68 20.77 213.87 21.06C214.05 21.35 214.15 21.6 214.15 21.83L214.14 21.82ZM214.45 24.29C214.45 24.45 214.42 24.68 214.37 24.99C214.31 25.29 214.26 25.57 214.21 25.81C214 26.83 213.75 27.86 213.47 28.89C213.18 29.92 212.79 30.9 212.29 31.83C212.27 31.86 212.25 31.9 212.23 31.95C212.21 32 212.18 32.04 212.15 32.07C212.07 32.18 211.97 32.24 211.86 32.24C211.78 32.24 211.64 32.16 211.44 32.01C211.24 31.86 211.02 31.67 210.78 31.46C210.54 31.24 210.32 31.04 210.12 30.85C209.92 30.66 209.78 30.53 209.7 30.47C210.36 29.81 210.98 29.06 211.56 28.21C212.14 27.36 212.66 26.52 213.11 25.69C213.24 25.45 213.37 25.19 213.51 24.91C213.65 24.63 213.77 24.39 213.88 24.18C213.91 24.12 213.96 24.06 214.01 24C214.06 23.94 214.13 23.92 214.21 23.92C214.29 23.92 214.35 23.97 214.39 24.06C214.43 24.16 214.45 24.24 214.45 24.3V24.29ZM215.39 16.34C215.39 16.53 215.29 16.63 215.1 16.63C214.89 16.57 214.7 16.51 214.52 16.46C214.36 16.4 214.17 16.32 213.94 16.24C213.72 16.16 213.48 16.09 213.24 16.02C212.78 15.84 212.32 15.68 211.88 15.54C211.44 15.4 211.14 15.31 210.98 15.28C211.03 15.2 211.12 15.04 211.26 14.79C211.4 14.54 211.55 14.28 211.73 14C211.91 13.72 212.07 13.48 212.21 13.27C212.35 13.06 212.46 12.96 212.52 12.96C212.66 12.96 212.89 13.1 213.2 13.39C213.51 13.68 213.83 14.03 214.16 14.43C214.49 14.84 214.77 15.22 215.01 15.58C215.25 15.94 215.37 16.19 215.37 16.34H215.39ZM232.21 31.32C232.21 31.54 232.13 31.77 231.97 32C231.81 32.23 231.59 32.35 231.32 32.35H213.9V31.51H216.42V23.25H229.43C229.43 24.23 229.43 25.2 229.44 26.18C229.44 27.16 229.45 28.13 229.45 29.11C229.45 29.54 229.39 29.96 229.27 30.37C229.15 30.78 228.98 31.16 228.75 31.51H230.12C230.12 31.24 230.21 30.96 230.4 30.68C230.58 30.4 230.84 30.26 231.18 30.26C231.47 30.26 231.71 30.37 231.91 30.58C232.11 30.8 232.21 31.04 232.21 31.31V31.32ZM228.18 18.22C228.18 19.37 227.9 20.18 227.33 20.66C226.76 21.13 225.92 21.37 224.8 21.37H217.6V13.07H228.18V18.23V18.22ZM220.24 31.51V24.07H218.2V31.51H220.24ZM226.24 18.86C226.24 18.03 226.24 17.2 226.23 16.38C226.23 15.56 226.22 14.73 226.22 13.9H219.38V16.97H222.79C222.79 16.97 222.77 16.87 222.77 16.75C222.77 16.48 222.86 16.27 223.05 16.13C223.23 15.99 223.45 15.91 223.71 15.91C223.97 15.91 224.17 16.01 224.33 16.2C224.49 16.39 224.57 16.61 224.57 16.85C224.57 17.12 224.47 17.35 224.27 17.52C224.07 17.7 223.84 17.78 223.59 17.76H219.39V20.59H224.67C225.23 20.61 225.63 20.45 225.88 20.13C226.13 19.81 226.25 19.39 226.25 18.86H226.24ZM223.79 31.51V24.07H221.77V31.51H223.79ZM227.53 29.62C227.53 28.69 227.53 27.77 227.52 26.85C227.51 25.93 227.51 25.01 227.51 24.1H225.33V31.54H226.91C227.18 31.28 227.35 30.99 227.43 30.65C227.51 30.31 227.54 29.97 227.54 29.62H227.53Z" fill="white"/>
<path d="M245.84 24.7C245.84 24.83 245.82 24.96 245.78 25.1C245.74 25.24 245.7 25.37 245.65 25.5C245.35 26.24 244.9 26.96 244.32 27.66C243.74 28.36 243.09 29.02 242.39 29.62C241.69 30.22 241 30.74 240.33 31.17C239.83 31.47 239.31 31.75 238.75 31.99C238.19 32.23 237.63 32.44 237.07 32.61C237.01 32.63 236.95 32.64 236.9 32.65C236.85 32.65 236.8 32.66 236.76 32.66C236.65 32.66 236.59 32.63 236.59 32.56C236.59 32.53 236.61 32.49 236.65 32.45C236.69 32.41 236.73 32.38 236.76 32.37C237.37 32 238 31.56 238.67 31.04C239.33 30.52 239.97 29.96 240.59 29.35C241.21 28.74 241.76 28.11 242.25 27.44C242.74 26.78 243.11 26.11 243.37 25.44H237.9V24.58H245.68C245.68 24.58 245.76 24.58 245.78 24.6C245.84 24.6 245.88 24.64 245.88 24.72L245.84 24.7ZM255.23 19.22C255.23 19.92 255.09 20.48 254.82 20.9C254.55 21.32 254.18 21.63 253.73 21.84C253.27 22.05 252.77 22.18 252.22 22.25C251.67 22.32 251.1 22.35 250.53 22.35C250.24 22.35 249.95 22.35 249.67 22.34C249.38 22.34 249.09 22.33 248.81 22.33V30.25C248.81 30.81 248.76 31.35 248.67 31.88C248.57 32.41 248.36 32.84 248.02 33.18C247.68 33.52 247.16 33.68 246.46 33.68C246.14 33.68 245.77 33.57 245.34 33.36C244.92 33.14 244.51 32.89 244.13 32.59C243.75 32.29 243.44 32.04 243.22 31.83C243.2 31.8 243.18 31.76 243.14 31.72C243.1 31.68 243.08 31.64 243.08 31.61C243.08 31.55 243.12 31.51 243.2 31.51C243.23 31.51 243.25 31.51 243.26 31.52C243.26 31.52 243.28 31.53 243.3 31.53H243.37C243.56 31.58 243.75 31.63 243.93 31.69C244.11 31.75 244.3 31.79 244.49 31.82C244.87 31.92 245.25 31.96 245.62 31.96C246.13 31.96 246.45 31.83 246.58 31.56C246.71 31.3 246.77 30.94 246.77 30.49V26.39C246.77 25.03 246.77 23.67 246.79 22.31H240.96V14.75H245.21C245.45 14.19 245.65 13.62 245.82 13.03C245.99 12.45 246.14 11.85 246.29 11.24C246.42 11.26 246.63 11.29 246.91 11.35C247.2 11.41 247.51 11.47 247.83 11.55C248.16 11.63 248.45 11.71 248.72 11.79C248.99 11.87 249.15 11.94 249.21 12.01C249.26 12.06 249.28 12.11 249.28 12.18C249.28 12.28 249.14 12.45 248.86 12.7C248.58 12.95 248.26 13.22 247.89 13.5C247.54 13.76 247.2 14.01 246.88 14.26C246.56 14.51 246.34 14.67 246.21 14.75H255.23V19.21V19.22ZM253.19 15.62H242.75V18.26H249.83C249.83 18.04 249.91 17.81 250.07 17.59C250.23 17.37 250.45 17.25 250.72 17.25C250.98 17.25 251.18 17.35 251.34 17.56C251.5 17.77 251.58 17.98 251.58 18.21C251.58 18.44 251.49 18.63 251.32 18.81C251.14 18.99 250.93 19.07 250.67 19.07H242.75V21.57H250.62C251.36 21.57 251.97 21.38 252.46 21.01C252.95 20.63 253.19 20.05 253.19 19.27V15.62ZM259.57 31.39C259.57 31.65 259.45 31.88 259.22 32.09C258.99 32.3 258.74 32.4 258.46 32.4C258.25 32.4 257.99 32.36 257.68 32.29C257.37 32.22 257.11 32.14 256.9 32.06C255.33 31.42 253.94 30.52 252.74 29.36C251.54 28.2 250.5 26.89 249.66 25.44C250.72 25.06 251.76 24.61 252.78 24.11C253.8 23.61 254.8 23.05 255.76 22.44C255.86 22.52 256.02 22.67 256.26 22.9C256.5 23.12 256.73 23.34 256.94 23.56C257.16 23.78 257.26 23.92 257.26 23.98C257.26 24.11 257.17 24.22 257 24.32C256.97 24.34 256.93 24.35 256.89 24.36C256.85 24.36 256.81 24.38 256.78 24.4C256.73 24.42 256.69 24.43 256.65 24.44C256.61 24.44 256.57 24.45 256.54 24.45C255.82 24.63 255.09 24.78 254.34 24.91C253.6 25.04 252.86 25.17 252.12 25.32C252.33 25.85 252.63 26.42 253.03 27.04C253.43 27.66 253.89 28.26 254.41 28.86C254.93 29.46 255.46 30.01 256.01 30.5C256.55 31 257.07 31.39 257.55 31.68C257.57 31.38 257.67 31.08 257.85 30.8C258.03 30.52 258.3 30.38 258.65 30.38C258.92 30.38 259.14 30.49 259.31 30.72C259.48 30.94 259.56 31.18 259.56 31.42L259.57 31.39Z" fill="white"/>
</g>
<defs>
<clipPath id="clip0_22_258">
<rect width="259.57" height="64.46" fill="white"/>
</clipPath>
</defs>
</svg>
