<svg width="260" height="66" viewBox="0 0 260 66" fill="none" xmlns="http://www.w3.org/2000/svg">
<g clip-path="url(#clip0_22_232)">
<path d="M0 0.769989V65.23H64.46V0.769989H0ZM61.32 62.09H3.14V3.90999H61.32V62.08V62.09Z" fill="white"/>
<path d="M60.32 4.91H4.14V61.08H60.32V4.91ZM37.14 25.16C37.32 24.73 37.51 24.28 37.67 23.84C38.91 20.55 39.11 16.98 38.21 13.45C39.32 14.43 40.09 16.16 40.46 17.88C40.86 19.71 40.83 21.72 40.46 23.55C40.43 23.69 40.4 23.88 40.37 24.01C40.3 24.28 40.22 24.65 40.14 24.9L40.01 25.34C39.92 25.62 39.81 25.91 39.71 26.19L39.39 26.99C38.94 28.05 38.58 29.12 38.34 30.28C38.3 30.5 38.25 30.74 38.22 30.97C38.16 31.34 38.12 31.74 38.09 32.11C38.01 33.21 38.06 34.28 38.21 35.37C38.36 36.44 38.61 37.52 38.94 38.53C38.55 38.26 38.2 37.88 37.89 37.47C36.73 35.95 36.04 33.79 35.94 31.59C35.83 29.35 36.33 27.04 37.16 25.15L37.14 25.16ZM29.64 25.11C29.71 24.91 29.85 24.51 29.93 24.31L30.06 23.91C30.23 23.4 30.39 22.83 30.54 22.31C30.81 21.3 31.02 20.25 31.17 19.19C31.53 16.56 31.46 13.78 30.99 11.13C31.82 11.97 32.41 13.17 32.86 14.43C33.9 17.39 33.97 20.89 33.3 24.02C33.24 24.32 33.13 24.76 33.06 25.06C33.05 25.13 33.01 25.25 32.99 25.31C32.94 25.47 32.82 25.9 32.77 26.06C32.68 26.34 32.54 26.74 32.44 27.02C31.84 28.7 31.38 30.42 31.15 32.25C30.79 35.1 31.03 38.08 31.7 40.86C31.26 40.5 30.89 40.02 30.55 39.5C29.59 38.03 28.95 36.17 28.66 34.24C28.19 31.17 28.64 27.88 29.66 25.11H29.64ZM22.66 25.16C22.84 24.73 23.03 24.28 23.19 23.84C24.43 20.55 24.63 16.98 23.73 13.45C24.84 14.43 25.61 16.16 25.98 17.88C26.38 19.71 26.35 21.72 25.98 23.55C25.95 23.69 25.92 23.88 25.89 24.01C25.82 24.28 25.74 24.65 25.66 24.9L25.53 25.34C25.44 25.62 25.33 25.91 25.23 26.19L24.91 26.99C24.46 28.05 24.1 29.12 23.86 30.28C23.82 30.5 23.77 30.74 23.74 30.97C23.68 31.34 23.64 31.74 23.61 32.11C23.53 33.21 23.58 34.28 23.73 35.37C23.88 36.44 24.13 37.52 24.46 38.53C24.07 38.26 23.72 37.88 23.41 37.47C22.25 35.95 21.56 33.79 21.46 31.59C21.35 29.35 21.85 27.04 22.68 25.15L22.66 25.16ZM44.39 42.79C42.66 46.01 39.77 47.82 37.05 48.89C31.08 51.16 22.92 50.48 17.86 45.22C16.55 43.81 15.37 41.87 15.13 39.52C14.92 37.55 15.51 35.62 16.53 34.29C17.26 33.31 18.14 32.62 19.07 32.12C18.36 32.99 17.69 33.94 17.21 35.04C15.61 38.69 17.41 41.34 19.76 42.98C24.42 46.16 31.3 46.46 36.35 45.02C41.61 43.53 47.29 39.14 41.45 32.12C42.86 32.88 44.23 34.15 44.95 36.05C45.8 38.26 45.45 40.83 44.39 42.8V42.79Z" fill="white"/>
<path d="M120.02 47.23C120.02 47.35 119.96 47.41 119.85 47.41C119.73 47.41 119.64 47.41 119.56 47.41C119.45 47.41 119.34 47.43 119.24 47.46C119.14 47.49 119.07 47.56 119.02 47.68C118.98 47.78 118.95 47.89 118.91 48C118.88 48.11 118.84 48.22 118.81 48.32L118.32 49.87L116.79 54.6L115.59 54.67C115.31 53.71 115.03 52.75 114.74 51.8C114.46 50.85 114.17 49.9 113.89 48.94C113.6 49.88 113.31 50.83 113.03 51.77C112.75 52.71 112.44 53.66 112.13 54.6L110.88 54.67C110.68 53.92 110.48 53.18 110.27 52.43C110.06 51.68 109.86 50.94 109.68 50.19C109.6 49.84 109.51 49.48 109.41 49.11C109.32 48.75 109.22 48.39 109.12 48.05C109.08 47.92 109.03 47.81 108.97 47.73C108.91 47.65 108.8 47.6 108.64 47.6C108.57 47.6 108.51 47.6 108.44 47.61C108.37 47.61 108.3 47.62 108.22 47.62C108.13 47.62 108.08 47.56 108.08 47.45C108.08 47.37 108.13 47.31 108.22 47.28C108.35 47.24 108.5 47.22 108.67 47.21C108.84 47.2 108.99 47.19 109.13 47.17C109.29 47.15 109.45 47.13 109.61 47.1C109.77 47.07 109.92 47.06 110.07 47.06C110.15 47.06 110.22 47.11 110.26 47.21C110.3 47.31 110.33 47.42 110.36 47.53C110.39 47.64 110.4 47.73 110.41 47.79C110.64 48.84 110.89 49.87 111.14 50.9C111.39 51.93 111.63 52.96 111.85 54.01C112.09 53.24 112.32 52.46 112.54 51.69C112.76 50.92 112.98 50.15 113.19 49.39C113.26 49.16 113.32 48.93 113.39 48.7C113.46 48.47 113.52 48.24 113.58 48.01C113.61 47.9 113.63 47.78 113.65 47.66C113.67 47.54 113.7 47.42 113.73 47.31C113.78 47.19 113.87 47.13 114 47.13H114.34C114.5 47.13 114.59 47.2 114.61 47.33C114.63 47.47 114.66 47.6 114.7 47.73C115 48.78 115.29 49.82 115.59 50.86C115.89 51.9 116.18 52.94 116.48 53.97C116.69 53.28 116.9 52.59 117.11 51.91C117.32 51.22 117.51 50.53 117.7 49.83C117.79 49.5 117.89 49.17 117.98 48.83C118.07 48.49 118.16 48.15 118.23 47.82C118.23 47.77 118.25 47.73 118.25 47.69C118.25 47.65 118.25 47.61 118.25 47.57C118.25 47.49 118.19 47.43 118.07 47.42C117.95 47.4 117.82 47.39 117.69 47.4C117.56 47.4 117.47 47.4 117.42 47.4C117.32 47.4 117.27 47.35 117.27 47.25C117.27 47.15 117.32 47.1 117.41 47.1H119.83C119.93 47.1 119.98 47.15 119.98 47.25L120.02 47.23Z" fill="white"/>
<path d="M130.13 52.91C130.13 52.91 130.13 52.98 130.1 52.99C130.07 53.08 130 53.2 129.9 53.33C129.79 53.46 129.67 53.58 129.54 53.7C129.41 53.82 129.3 53.9 129.22 53.96C128.91 54.17 128.56 54.35 128.18 54.48C127.79 54.61 127.41 54.68 127.02 54.68C126.7 54.68 126.35 54.63 125.96 54.53C125.57 54.43 125.24 54.29 124.97 54.11C124.45 53.76 124.06 53.31 123.82 52.75C123.58 52.19 123.46 51.61 123.46 51C123.46 50.31 123.59 49.67 123.87 49.08C124.14 48.49 124.57 48.02 125.17 47.65C125.44 47.49 125.74 47.36 126.08 47.25C126.42 47.14 126.74 47.09 127.05 47.09C127.6 47.09 128.09 47.2 128.51 47.43C128.93 47.65 129.26 47.97 129.5 48.37C129.74 48.78 129.86 49.26 129.86 49.82C129.86 49.98 129.82 50.08 129.76 50.13C129.69 50.18 129.59 50.2 129.44 50.2C129.25 50.2 129.07 50.2 128.88 50.19C128.69 50.19 128.51 50.17 128.32 50.16C128.06 50.14 127.8 50.13 127.54 50.13H125.81C125.49 50.13 125.18 50.13 124.86 50.16C124.86 50.31 124.84 50.45 124.83 50.59C124.83 50.73 124.82 50.88 124.82 51.02C124.82 51.37 124.86 51.72 124.95 52.09C125.04 52.46 125.17 52.8 125.36 53.11C125.55 53.42 125.78 53.67 126.07 53.87C126.36 54.07 126.71 54.16 127.12 54.16C127.53 54.16 127.94 54.09 128.32 53.96C128.7 53.83 129.05 53.62 129.37 53.33C129.45 53.25 129.53 53.16 129.6 53.06C129.67 52.96 129.75 52.88 129.83 52.8C129.88 52.75 129.93 52.73 129.98 52.73C130.03 52.73 130.06 52.75 130.09 52.79C130.12 52.83 130.13 52.87 130.13 52.92V52.91ZM128.52 49.7C128.52 49.32 128.48 48.95 128.42 48.6C128.36 48.25 128.23 47.96 128.01 47.73C127.79 47.5 127.45 47.39 126.96 47.39C126.52 47.39 126.16 47.51 125.89 47.75C125.61 47.99 125.4 48.29 125.25 48.65C125.1 49.01 124.99 49.38 124.91 49.75C125.14 49.75 125.37 49.77 125.6 49.77C125.82 49.77 126.05 49.77 126.27 49.77C126.64 49.77 127.02 49.77 127.39 49.75C127.76 49.74 128.14 49.72 128.51 49.7H128.52Z" fill="white"/>
<path d="M137.65 54.44C137.65 54.44 137.64 54.53 137.61 54.57C137.59 54.61 137.55 54.63 137.49 54.63C137.2 54.63 136.91 54.63 136.61 54.61C136.31 54.6 136.01 54.59 135.71 54.59H135.22C135.02 54.59 134.83 54.59 134.63 54.61C134.43 54.62 134.24 54.63 134.04 54.63C134 54.63 133.98 54.61 133.96 54.58C133.95 54.55 133.94 54.52 133.94 54.49V54.41C133.94 54.41 133.94 54.35 133.95 54.33C133.97 54.29 134.02 54.27 134.11 54.27C134.2 54.27 134.29 54.27 134.39 54.27C134.49 54.27 134.55 54.27 134.58 54.27C134.71 54.27 134.83 54.24 134.93 54.18C135.03 54.12 135.08 54.01 135.08 53.87C135.08 53.15 135.08 52.43 135.09 51.72C135.09 51.01 135.1 50.29 135.1 49.58C135.1 48.87 135.1 48.12 135.1 47.39C135.1 46.66 135.1 45.93 135.1 45.2C135.1 45.13 135.1 45.06 135.09 44.98C135.09 44.9 135.05 44.84 135.01 44.79C134.97 44.74 134.94 44.72 134.9 44.71C134.86 44.71 134.82 44.71 134.76 44.71C134.59 44.71 134.43 44.74 134.26 44.79C134.1 44.85 133.94 44.87 133.78 44.87C133.68 44.87 133.63 44.81 133.63 44.69C133.63 44.62 133.69 44.56 133.8 44.54C133.92 44.51 134.01 44.49 134.07 44.48C134.4 44.41 134.75 44.32 135.13 44.23C135.51 44.14 135.86 44.03 136.17 43.91C136.19 43.91 136.21 43.91 136.23 43.9C136.25 43.89 136.26 43.89 136.27 43.89C136.33 43.89 136.36 43.91 136.37 43.95C136.38 43.99 136.39 44.03 136.39 44.08C136.39 44.34 136.39 44.6 136.39 44.86C136.39 45.12 136.39 45.38 136.39 45.64V49.56C136.39 50.28 136.39 51 136.4 51.72C136.4 52.44 136.41 53.16 136.41 53.88C136.41 54.03 136.47 54.13 136.6 54.19C136.73 54.25 136.85 54.28 136.97 54.28C137.07 54.28 137.17 54.28 137.26 54.27C137.35 54.27 137.45 54.26 137.54 54.26C137.59 54.26 137.62 54.29 137.62 54.34C137.62 54.39 137.63 54.43 137.63 54.46L137.65 54.44Z" fill="white"/>
<path d="M148.23 52.88C148.23 52.95 148.18 53.04 148.08 53.15C147.98 53.27 147.9 53.35 147.86 53.4L147.61 53.65C147.53 53.73 147.43 53.81 147.33 53.89C147.04 54.1 146.7 54.27 146.29 54.41C145.89 54.56 145.51 54.63 145.16 54.63C144.45 54.63 143.83 54.47 143.29 54.16C142.75 53.85 142.33 53.42 142.03 52.87C141.73 52.32 141.57 51.7 141.57 51C141.57 50.3 141.71 49.66 141.99 49.05C142.27 48.44 142.71 47.95 143.32 47.58C143.58 47.42 143.87 47.3 144.2 47.2C144.53 47.1 144.83 47.06 145.13 47.06C145.36 47.06 145.59 47.09 145.81 47.14C146.03 47.2 146.24 47.27 146.45 47.36C146.57 47.42 146.69 47.47 146.8 47.53C146.91 47.59 147.03 47.61 147.16 47.61C147.27 47.61 147.36 47.57 147.43 47.51C147.5 47.44 147.55 47.41 147.59 47.41C147.62 47.41 147.63 47.43 147.63 47.47C147.65 47.58 147.66 47.69 147.65 47.81C147.65 47.92 147.65 48.03 147.65 48.13C147.65 48.34 147.67 48.54 147.68 48.75C147.68 48.96 147.7 49.16 147.71 49.37V49.41C147.71 49.51 147.71 49.59 147.68 49.65C147.65 49.71 147.58 49.73 147.46 49.73C147.39 49.73 147.35 49.69 147.33 49.62C147.31 49.55 147.29 49.48 147.27 49.42C147.2 49.15 147.11 48.86 146.98 48.55C146.85 48.24 146.67 47.99 146.45 47.81C146.31 47.68 146.14 47.57 145.93 47.49C145.72 47.41 145.52 47.36 145.33 47.36C144.88 47.36 144.5 47.47 144.19 47.7C143.88 47.93 143.63 48.22 143.44 48.58C143.25 48.94 143.12 49.32 143.03 49.73C142.94 50.14 142.9 50.53 142.9 50.89C142.9 51.25 142.94 51.62 143.03 52C143.12 52.38 143.25 52.73 143.43 53.06C143.61 53.39 143.85 53.65 144.16 53.84C144.46 54.04 144.83 54.13 145.26 54.13C145.86 54.13 146.36 54.02 146.76 53.8C147.16 53.58 147.55 53.24 147.92 52.78C147.96 52.72 148.01 52.68 148.07 52.68C148.19 52.68 148.25 52.74 148.25 52.85L148.23 52.88Z" fill="white"/>
<path d="M158.76 53.88C158.76 53.88 158.76 53.95 158.75 53.96C158.66 54.17 158.5 54.32 158.28 54.43C158.06 54.54 157.84 54.59 157.63 54.59C157.24 54.59 156.96 54.48 156.78 54.25C156.61 54.02 156.47 53.74 156.37 53.4C156.01 53.73 155.62 54 155.19 54.22C154.76 54.44 154.3 54.55 153.8 54.55C153.46 54.55 153.13 54.48 152.83 54.35C152.53 54.21 152.28 54.02 152.09 53.75C151.9 53.49 151.81 53.17 151.81 52.8C151.81 52.41 151.91 52.07 152.11 51.78C152.31 51.5 152.57 51.25 152.88 51.05C153.19 50.85 153.53 50.69 153.89 50.56C154.25 50.43 154.59 50.34 154.91 50.27C155.12 50.22 155.34 50.18 155.57 50.14C155.79 50.1 156.01 50.07 156.23 50.03C156.23 49.77 156.22 49.47 156.2 49.12C156.18 48.77 156.1 48.49 155.98 48.27C155.86 48.06 155.7 47.86 155.49 47.7C155.28 47.53 155.06 47.45 154.8 47.45C154.37 47.45 154.03 47.56 153.79 47.79C153.55 48.01 153.37 48.33 153.27 48.74C153.27 48.79 153.25 48.84 153.25 48.89C153.25 48.94 153.24 48.99 153.23 49.04C153.23 49.1 153.19 49.14 153.13 49.19C153.07 49.24 153.01 49.25 152.94 49.25C152.76 49.25 152.6 49.21 152.46 49.12C152.32 49.03 152.24 48.9 152.24 48.7C152.24 48.59 152.26 48.49 152.3 48.41C152.42 48.12 152.62 47.88 152.89 47.69C153.16 47.5 153.46 47.35 153.79 47.25C154.12 47.15 154.43 47.1 154.72 47.1C155.22 47.1 155.68 47.19 156.09 47.38C156.5 47.57 156.83 47.84 157.08 48.2C157.33 48.56 157.45 49.01 157.45 49.55C157.45 50.16 157.45 50.77 157.45 51.38C157.45 52 157.46 52.61 157.5 53.23C157.5 53.44 157.55 53.61 157.63 53.77C157.7 53.92 157.86 54 158.09 54C158.21 54 158.34 53.97 158.47 53.91C158.6 53.85 158.69 53.82 158.73 53.82C158.76 53.82 158.77 53.84 158.77 53.89L158.76 53.88ZM156.31 52.98C156.27 52.56 156.25 52.14 156.25 51.71C156.25 51.28 156.24 50.86 156.23 50.43H156.03C155.74 50.43 155.42 50.47 155.07 50.56C154.72 50.65 154.39 50.78 154.07 50.96C153.75 51.14 153.49 51.36 153.29 51.63C153.09 51.9 152.99 52.2 152.99 52.55C152.99 53 153.12 53.34 153.37 53.56C153.62 53.79 153.96 53.9 154.39 53.9C154.6 53.9 154.82 53.85 155.06 53.75C155.3 53.65 155.54 53.53 155.76 53.39C155.98 53.25 156.17 53.11 156.31 52.97V52.98Z" fill="white"/>
<path d="M167.75 48.39C167.75 48.48 167.72 48.57 167.65 48.65C167.58 48.73 167.49 48.77 167.39 48.77C167.25 48.77 167.15 48.72 167.09 48.63C167.03 48.54 166.98 48.43 166.94 48.31C166.9 48.19 166.83 48.08 166.75 47.99C166.67 47.9 166.53 47.85 166.33 47.85H166.23C166.23 47.85 166.16 47.85 166.12 47.86C165.96 47.89 165.79 47.99 165.6 48.15C165.41 48.32 165.23 48.52 165.06 48.74C164.89 48.97 164.74 49.2 164.63 49.42C164.52 49.64 164.46 49.83 164.45 49.98C164.44 50.13 164.44 50.28 164.44 50.42V50.85C164.44 51.35 164.44 51.86 164.44 52.36C164.44 52.86 164.44 53.36 164.44 53.86C164.44 54 164.5 54.1 164.61 54.16C164.73 54.22 164.85 54.25 164.97 54.25C165.06 54.25 165.16 54.25 165.25 54.24C165.34 54.24 165.44 54.23 165.53 54.23C165.58 54.23 165.61 54.25 165.63 54.29C165.65 54.33 165.66 54.37 165.66 54.41C165.66 54.56 165.59 54.63 165.44 54.63C165.16 54.63 164.88 54.63 164.6 54.61C164.32 54.6 164.04 54.59 163.76 54.59C163.48 54.59 163.18 54.59 162.88 54.62C162.58 54.65 162.29 54.65 161.99 54.65C161.95 54.65 161.93 54.62 161.91 54.57C161.9 54.51 161.89 54.47 161.89 54.43C161.89 54.34 161.93 54.28 162 54.28C162.1 54.26 162.21 54.26 162.32 54.27C162.43 54.27 162.53 54.28 162.63 54.28C162.77 54.28 162.88 54.25 162.97 54.19C163.06 54.13 163.11 54.02 163.12 53.88C163.14 53.58 163.15 53.28 163.15 52.97C163.15 52.66 163.15 52.35 163.15 52.05V50.69C163.15 50.29 163.14 49.89 163.15 49.49C163.15 49.09 163.14 48.7 163.1 48.31C163.1 48.12 163.04 47.99 162.95 47.91C162.86 47.83 162.72 47.79 162.53 47.79C162.46 47.79 162.38 47.79 162.3 47.81C162.22 47.82 162.14 47.83 162.05 47.83C161.97 47.83 161.94 47.77 161.94 47.66C161.94 47.6 161.97 47.55 162.04 47.52C162.13 47.49 162.23 47.47 162.33 47.46C162.43 47.45 162.53 47.43 162.62 47.42C162.87 47.37 163.12 47.33 163.38 47.28C163.63 47.23 163.88 47.18 164.14 47.11C164.22 47.14 164.28 47.19 164.32 47.26C164.34 47.3 164.35 47.4 164.36 47.57C164.36 47.74 164.37 47.93 164.37 48.15V49.17C164.58 48.84 164.81 48.52 165.07 48.19C165.33 47.86 165.63 47.59 165.97 47.38C166.31 47.17 166.68 47.06 167.1 47.06C167.32 47.06 167.47 47.13 167.53 47.27C167.59 47.41 167.64 47.57 167.66 47.76C167.68 47.86 167.7 47.97 167.71 48.08C167.72 48.19 167.73 48.3 167.73 48.4L167.75 48.39Z" fill="white"/>
<path d="M178 52.91C178 52.91 178 52.98 177.97 52.99C177.94 53.08 177.87 53.2 177.77 53.33C177.66 53.46 177.54 53.58 177.41 53.7C177.28 53.82 177.17 53.9 177.09 53.96C176.78 54.17 176.43 54.35 176.05 54.48C175.66 54.61 175.28 54.68 174.89 54.68C174.57 54.68 174.22 54.63 173.83 54.53C173.44 54.43 173.11 54.29 172.84 54.11C172.32 53.76 171.93 53.31 171.69 52.75C171.45 52.19 171.33 51.61 171.33 51C171.33 50.31 171.46 49.67 171.74 49.08C172.01 48.49 172.44 48.02 173.04 47.65C173.31 47.49 173.61 47.36 173.95 47.25C174.29 47.14 174.61 47.09 174.92 47.09C175.47 47.09 175.96 47.2 176.38 47.43C176.8 47.65 177.13 47.97 177.37 48.37C177.61 48.78 177.73 49.26 177.73 49.82C177.73 49.98 177.69 50.08 177.63 50.13C177.56 50.18 177.46 50.2 177.31 50.2C177.12 50.2 176.94 50.2 176.75 50.19C176.56 50.19 176.38 50.17 176.19 50.16C175.93 50.14 175.67 50.13 175.41 50.13H173.68C173.36 50.13 173.05 50.13 172.73 50.16C172.73 50.31 172.71 50.45 172.7 50.59C172.7 50.73 172.69 50.88 172.69 51.02C172.69 51.37 172.73 51.72 172.82 52.09C172.91 52.46 173.04 52.8 173.23 53.11C173.42 53.42 173.65 53.67 173.94 53.87C174.23 54.07 174.58 54.16 174.99 54.16C175.4 54.16 175.81 54.09 176.19 53.96C176.57 53.83 176.92 53.62 177.24 53.33C177.32 53.25 177.4 53.16 177.47 53.06C177.54 52.96 177.62 52.88 177.7 52.8C177.75 52.75 177.8 52.73 177.85 52.73C177.9 52.73 177.93 52.75 177.96 52.79C177.99 52.83 178 52.87 178 52.92V52.91ZM176.39 49.7C176.39 49.32 176.35 48.95 176.29 48.6C176.23 48.25 176.1 47.96 175.88 47.73C175.66 47.5 175.32 47.39 174.83 47.39C174.39 47.39 174.03 47.51 173.76 47.75C173.48 47.99 173.27 48.29 173.12 48.65C172.97 49.01 172.86 49.38 172.78 49.75C173.01 49.75 173.24 49.77 173.47 49.77C173.69 49.77 173.92 49.77 174.14 49.77C174.51 49.77 174.89 49.77 175.26 49.75C175.63 49.74 176.01 49.72 176.38 49.7H176.39Z" fill="white"/>
<path d="M195.44 50.96C195.44 51.66 195.27 52.29 194.94 52.85C194.61 53.41 194.16 53.85 193.6 54.18C193.04 54.51 192.4 54.67 191.7 54.67C191 54.67 190.4 54.5 189.85 54.17C189.3 53.84 188.86 53.4 188.53 52.84C188.2 52.28 188.04 51.67 188.04 50.99C188.04 50.31 188.2 49.64 188.52 49.05C188.84 48.46 189.27 47.98 189.83 47.61C190.39 47.24 191.03 47.06 191.75 47.06C192.53 47.06 193.2 47.23 193.75 47.56C194.3 47.89 194.72 48.35 195 48.93C195.29 49.51 195.43 50.19 195.43 50.95L195.44 50.96ZM194 50.92C194 50.52 193.97 50.11 193.91 49.71C193.85 49.3 193.74 48.93 193.57 48.58C193.41 48.23 193.17 47.96 192.86 47.75C192.55 47.54 192.15 47.44 191.66 47.44C191.19 47.44 190.81 47.55 190.52 47.78C190.23 48 190 48.29 189.83 48.65C189.67 49 189.55 49.39 189.49 49.8C189.43 50.21 189.4 50.6 189.4 50.96C189.4 51.36 189.43 51.76 189.49 52.16C189.55 52.56 189.66 52.92 189.83 53.24C190 53.56 190.24 53.82 190.55 54.02C190.86 54.22 191.27 54.31 191.76 54.31C192.25 54.31 192.64 54.21 192.93 54C193.22 53.79 193.45 53.52 193.6 53.19C193.75 52.85 193.86 52.49 193.91 52.09C193.96 51.69 193.99 51.3 193.99 50.92H194Z" fill="white"/>
<path d="M207.52 54.41C207.52 54.53 207.45 54.59 207.31 54.59C207.1 54.59 206.89 54.59 206.68 54.57C206.47 54.56 206.25 54.55 206.04 54.55C205.72 54.55 205.4 54.55 205.07 54.57C204.74 54.58 204.41 54.59 204.08 54.59C204.04 54.59 204.02 54.56 204.01 54.5C204.01 54.44 204 54.39 204 54.35C204 54.28 204.05 54.24 204.14 54.24H204.36C204.36 54.24 204.46 54.24 204.51 54.24C204.56 54.24 204.61 54.24 204.66 54.24C204.93 54.24 205.08 54.1 205.11 53.83C205.14 53.28 205.15 52.72 205.15 52.16C205.15 51.6 205.15 51.04 205.15 50.49V49.86C205.15 49.65 205.13 49.38 205.11 49.07C205.09 48.76 205.05 48.5 204.98 48.31C204.83 47.83 204.5 47.58 204 47.58C203.54 47.58 203.12 47.7 202.74 47.93C202.36 48.16 202.03 48.46 201.75 48.81C201.75 49.49 201.74 50.17 201.74 50.84V53.82C201.74 53.96 201.8 54.06 201.92 54.13C202.04 54.2 202.16 54.23 202.28 54.23C202.36 54.23 202.43 54.23 202.5 54.21C202.57 54.2 202.64 54.19 202.7 54.19C202.74 54.19 202.76 54.21 202.77 54.26C202.77 54.31 202.78 54.34 202.78 54.37C202.78 54.41 202.77 54.45 202.74 54.5C202.72 54.55 202.68 54.57 202.62 54.57C202.41 54.57 202.21 54.57 202.01 54.55C201.81 54.54 201.61 54.53 201.4 54.53C201.08 54.53 200.77 54.53 200.45 54.55C200.13 54.56 199.81 54.57 199.48 54.57C199.43 54.57 199.41 54.54 199.4 54.48C199.4 54.42 199.4 54.37 199.4 54.33C199.4 54.26 199.44 54.22 199.53 54.22H199.73C199.73 54.22 199.82 54.22 199.87 54.22C199.92 54.22 199.96 54.22 200.01 54.22C200.28 54.22 200.43 54.08 200.46 53.81C200.46 53.68 200.47 53.55 200.47 53.42V50.61C200.47 49.8 200.47 49 200.46 48.2C200.46 48.07 200.43 47.94 200.38 47.81C200.32 47.68 200.22 47.61 200.06 47.61C199.94 47.61 199.82 47.63 199.71 47.67C199.6 47.71 199.48 47.73 199.36 47.73C199.29 47.73 199.26 47.68 199.26 47.59C199.26 47.57 199.26 47.55 199.26 47.53C199.26 47.51 199.27 47.49 199.28 47.48C199.28 47.48 199.3 47.46 199.32 47.46C199.34 47.46 199.35 47.45 199.36 47.44C199.53 47.39 199.7 47.36 199.89 47.34C200.08 47.32 200.25 47.29 200.42 47.26C200.58 47.23 200.73 47.19 200.88 47.14C201.03 47.09 201.18 47.06 201.33 47.06C201.4 47.06 201.45 47.09 201.48 47.16C201.53 47.24 201.56 47.36 201.59 47.52C201.62 47.67 201.64 47.83 201.65 47.99C201.66 48.15 201.67 48.28 201.67 48.38C201.88 48.17 202.12 47.97 202.4 47.77C202.69 47.57 202.98 47.4 203.3 47.27C203.61 47.13 203.92 47.07 204.22 47.07C205.08 47.07 205.66 47.26 205.96 47.64C206.26 48.02 206.42 48.61 206.42 49.42C206.42 50.15 206.42 50.88 206.42 51.6C206.42 52.33 206.42 53.06 206.42 53.78C206.42 53.96 206.47 54.08 206.58 54.14C206.69 54.2 206.82 54.23 206.96 54.23C207.04 54.23 207.11 54.23 207.18 54.21C207.25 54.2 207.32 54.19 207.39 54.19C207.45 54.19 207.49 54.21 207.51 54.25C207.53 54.29 207.55 54.34 207.55 54.38L207.52 54.41Z" fill="white"/>
<path d="M216.33 52.62C216.33 53.04 216.24 53.38 216.05 53.65C215.86 53.92 215.62 54.12 215.32 54.26C215.02 54.4 214.7 54.5 214.34 54.55C213.98 54.61 213.64 54.63 213.3 54.63C212.99 54.63 212.69 54.6 212.38 54.53C212.08 54.46 211.77 54.42 211.46 54.39C211.39 54.14 211.33 53.89 211.27 53.63C211.21 53.37 211.14 53.13 211.07 52.89C211.07 52.86 211.04 52.8 211.01 52.69C210.98 52.59 210.96 52.53 210.96 52.52C210.96 52.45 210.98 52.39 211.03 52.36C211.08 52.33 211.13 52.31 211.2 52.31C211.27 52.31 211.31 52.33 211.34 52.38C211.4 52.45 211.44 52.53 211.49 52.65C211.54 52.77 211.57 52.86 211.61 52.94C211.69 53.09 211.75 53.2 211.81 53.28C211.87 53.36 211.95 53.46 212.08 53.58C212.44 53.96 212.9 54.15 213.44 54.15C213.74 54.15 214.01 54.12 214.26 54.05C214.51 53.98 214.71 53.86 214.86 53.68C215.01 53.5 215.08 53.23 215.08 52.89C215.08 52.59 214.99 52.34 214.8 52.14C214.61 51.94 214.37 51.76 214.08 51.6C213.79 51.44 213.48 51.29 213.15 51.14C212.82 50.99 212.51 50.83 212.22 50.64C211.93 50.45 211.69 50.24 211.5 49.97C211.31 49.71 211.22 49.39 211.22 49.02C211.22 48.56 211.34 48.19 211.58 47.9C211.82 47.61 212.12 47.39 212.5 47.25C212.87 47.1 213.26 47.03 213.66 47.03C213.92 47.03 214.16 47.06 214.37 47.13C214.58 47.2 214.8 47.27 215.04 47.35C215.11 47.38 215.19 47.4 215.26 47.41C215.34 47.41 215.41 47.42 215.48 47.42H215.61C215.61 47.42 215.68 47.42 215.72 47.41C215.75 47.58 215.77 47.75 215.8 47.92C215.83 48.09 215.84 48.27 215.86 48.44C215.86 48.51 215.88 48.58 215.89 48.67C215.9 48.76 215.91 48.84 215.91 48.92C215.91 48.99 215.9 49.05 215.87 49.12C215.84 49.19 215.79 49.22 215.7 49.22C215.63 49.22 215.58 49.22 215.54 49.2C215.5 49.19 215.46 49.15 215.44 49.08C215.39 48.99 215.35 48.89 215.32 48.78C215.29 48.67 215.25 48.57 215.21 48.48C215.09 48.15 214.88 47.89 214.58 47.69C214.28 47.49 213.96 47.39 213.61 47.39C213.17 47.39 212.84 47.52 212.62 47.77C212.4 48.03 212.28 48.37 212.28 48.8C212.28 48.95 212.32 49.09 212.4 49.23C212.48 49.37 212.57 49.49 212.67 49.59C212.87 49.78 213.1 49.92 213.36 50.02C213.63 50.12 213.88 50.23 214.12 50.33C214.44 50.47 214.77 50.64 215.11 50.83C215.45 51.03 215.74 51.26 215.98 51.54C216.22 51.82 216.34 52.16 216.34 52.56L216.33 52.62Z" fill="white"/>
<path d="M226.9 52.91C226.9 52.91 226.9 52.98 226.87 52.99C226.84 53.08 226.77 53.2 226.67 53.33C226.56 53.46 226.44 53.58 226.31 53.7C226.18 53.82 226.07 53.9 225.99 53.96C225.68 54.17 225.33 54.35 224.95 54.48C224.56 54.61 224.18 54.68 223.79 54.68C223.47 54.68 223.12 54.63 222.73 54.53C222.34 54.43 222.01 54.29 221.74 54.11C221.22 53.76 220.83 53.31 220.59 52.75C220.35 52.19 220.23 51.61 220.23 51C220.23 50.31 220.36 49.67 220.64 49.08C220.91 48.49 221.34 48.02 221.94 47.65C222.21 47.49 222.51 47.36 222.85 47.25C223.19 47.14 223.51 47.09 223.82 47.09C224.37 47.09 224.86 47.2 225.28 47.43C225.7 47.65 226.03 47.97 226.27 48.37C226.51 48.78 226.63 49.26 226.63 49.82C226.63 49.98 226.59 50.08 226.53 50.13C226.46 50.18 226.36 50.2 226.21 50.2C226.02 50.2 225.84 50.2 225.65 50.19C225.46 50.19 225.28 50.17 225.09 50.16C224.83 50.14 224.57 50.13 224.31 50.13H222.58C222.26 50.13 221.95 50.13 221.63 50.16C221.63 50.31 221.61 50.45 221.6 50.59C221.6 50.73 221.59 50.88 221.59 51.02C221.59 51.37 221.63 51.72 221.72 52.09C221.81 52.46 221.94 52.8 222.13 53.11C222.32 53.42 222.55 53.67 222.84 53.87C223.13 54.07 223.48 54.16 223.89 54.16C224.3 54.16 224.71 54.09 225.09 53.96C225.47 53.83 225.82 53.62 226.14 53.33C226.22 53.25 226.3 53.16 226.37 53.06C226.44 52.96 226.52 52.88 226.6 52.8C226.65 52.75 226.7 52.73 226.75 52.73C226.8 52.73 226.83 52.75 226.86 52.79C226.89 52.83 226.9 52.87 226.9 52.92V52.91ZM225.29 49.7C225.29 49.32 225.25 48.95 225.19 48.6C225.13 48.25 225 47.96 224.78 47.73C224.56 47.5 224.22 47.39 223.73 47.39C223.29 47.39 222.93 47.51 222.66 47.75C222.38 47.99 222.17 48.29 222.02 48.65C221.87 49.01 221.76 49.38 221.68 49.75C221.91 49.75 222.14 49.77 222.37 49.77C222.59 49.77 222.82 49.77 223.04 49.77C223.41 49.77 223.79 49.77 224.16 49.75C224.53 49.74 224.91 49.72 225.28 49.7H225.29Z" fill="white"/>
<path d="M238.64 54.41C238.64 54.53 238.57 54.59 238.43 54.59C238.22 54.59 238.01 54.59 237.8 54.57C237.59 54.56 237.37 54.55 237.16 54.55C236.84 54.55 236.52 54.55 236.19 54.57C235.86 54.58 235.53 54.59 235.2 54.59C235.16 54.59 235.14 54.56 235.13 54.5C235.13 54.44 235.12 54.39 235.12 54.35C235.12 54.28 235.17 54.24 235.26 54.24H235.48C235.48 54.24 235.58 54.24 235.63 54.24C235.68 54.24 235.73 54.24 235.78 54.24C236.05 54.24 236.2 54.1 236.23 53.83C236.26 53.28 236.27 52.72 236.27 52.16C236.27 51.6 236.27 51.04 236.27 50.49V49.86C236.27 49.65 236.25 49.38 236.23 49.07C236.21 48.76 236.17 48.5 236.1 48.31C235.95 47.83 235.62 47.58 235.12 47.58C234.66 47.58 234.24 47.7 233.86 47.93C233.48 48.16 233.15 48.46 232.87 48.81C232.87 49.49 232.86 50.17 232.86 50.84V53.82C232.86 53.96 232.92 54.06 233.04 54.13C233.16 54.2 233.28 54.23 233.4 54.23C233.47 54.23 233.55 54.23 233.62 54.21C233.69 54.2 233.76 54.19 233.82 54.19C233.86 54.19 233.88 54.21 233.89 54.26C233.89 54.31 233.9 54.34 233.9 54.37C233.9 54.41 233.89 54.45 233.86 54.5C233.84 54.55 233.8 54.57 233.74 54.57C233.53 54.57 233.33 54.57 233.13 54.55C232.93 54.54 232.73 54.53 232.52 54.53C232.2 54.53 231.89 54.53 231.57 54.55C231.25 54.56 230.93 54.57 230.6 54.57C230.55 54.57 230.53 54.54 230.52 54.48C230.52 54.42 230.52 54.37 230.52 54.33C230.52 54.26 230.56 54.22 230.65 54.22H230.85C230.85 54.22 230.94 54.22 230.99 54.22C231.04 54.22 231.08 54.22 231.13 54.22C231.4 54.22 231.55 54.08 231.58 53.81C231.58 53.68 231.59 53.55 231.59 53.42V50.61C231.59 49.8 231.59 49 231.58 48.2C231.58 48.07 231.55 47.94 231.5 47.81C231.45 47.68 231.34 47.61 231.18 47.61C231.06 47.61 230.94 47.63 230.83 47.67C230.72 47.71 230.6 47.73 230.48 47.73C230.41 47.73 230.38 47.68 230.38 47.59C230.38 47.57 230.38 47.55 230.38 47.53C230.38 47.51 230.39 47.49 230.4 47.48C230.4 47.48 230.42 47.46 230.44 47.46C230.46 47.46 230.47 47.45 230.48 47.44C230.65 47.39 230.82 47.36 231 47.34C231.18 47.32 231.36 47.29 231.53 47.26C231.69 47.23 231.84 47.19 231.99 47.14C232.14 47.09 232.29 47.06 232.44 47.06C232.51 47.06 232.56 47.09 232.59 47.16C232.64 47.24 232.67 47.36 232.7 47.52C232.73 47.67 232.75 47.83 232.76 47.99C232.77 48.15 232.78 48.28 232.78 48.38C232.99 48.17 233.23 47.97 233.52 47.77C233.8 47.57 234.1 47.4 234.42 47.27C234.73 47.13 235.04 47.07 235.34 47.07C236.2 47.07 236.78 47.26 237.08 47.64C237.38 48.02 237.54 48.61 237.54 49.42C237.54 50.15 237.54 50.88 237.54 51.6C237.54 52.32 237.54 53.06 237.54 53.78C237.54 53.96 237.59 54.08 237.7 54.14C237.81 54.2 237.94 54.23 238.08 54.23C238.15 54.23 238.23 54.23 238.3 54.21C238.38 54.2 238.44 54.19 238.51 54.19C238.57 54.19 238.61 54.21 238.63 54.25C238.65 54.29 238.67 54.34 238.67 54.38L238.64 54.41Z" fill="white"/>
<path d="M103.76 19.63C103.76 19.81 103.65 19.98 103.42 20.15C103.2 20.32 103.02 20.46 102.89 20.57C102.73 21.51 102.46 22.49 102.09 23.5C101.72 24.51 101.27 25.48 100.75 26.4C100.23 27.33 99.66 28.16 99.03 28.9C98.29 29.78 97.44 30.54 96.46 31.17C95.48 31.8 94.47 32.32 93.41 32.73C92.35 33.14 91.32 33.45 90.31 33.65C90.09 33.7 89.84 33.74 89.57 33.78C89.3 33.82 89.04 33.86 88.8 33.89C88.74 33.91 88.68 33.88 88.64 33.81C88.6 33.74 88.61 33.69 88.68 33.68C88.76 33.65 88.87 33.62 89 33.6C89.14 33.58 89.27 33.55 89.4 33.52C89.58 33.47 89.76 33.42 89.96 33.36C90.16 33.3 90.32 33.24 90.43 33.18C91.89 32.59 93.23 31.83 94.47 30.91C95.71 29.99 96.79 28.86 97.72 27.51C98.17 26.85 98.59 26.08 98.99 25.18C99.39 24.28 99.72 23.37 99.99 22.44C100.25 21.51 100.39 20.67 100.39 19.92C100.39 19.63 100.3 19.44 100.11 19.33C99.93 19.23 99.68 19.18 99.38 19.2C98.61 19.25 97.74 19.33 96.76 19.44C95.78 19.55 94.81 19.68 93.84 19.84C92.87 19.99 92 20.16 91.24 20.36C91.27 20.89 91.3 21.45 91.32 22.05C91.34 22.65 91.41 23.23 91.52 23.79C91.55 23.9 91.58 24.02 91.6 24.15C91.62 24.28 91.64 24.41 91.64 24.53C91.64 24.74 91.62 24.94 91.59 25.13C91.56 25.32 91.49 25.52 91.4 25.73C91.21 26.15 90.94 26.35 90.58 26.35C90.42 26.35 90.24 26.25 90.04 26.06C89.84 25.87 89.67 25.64 89.54 25.38C89.4 25.12 89.34 24.9 89.34 24.72C89.34 24.59 89.34 24.46 89.35 24.34C89.35 24.21 89.36 24.08 89.36 23.96C89.36 23.24 89.33 22.51 89.26 21.76C89.2 21.02 89.1 20.3 88.97 19.61C88.92 19.31 88.83 19.05 88.69 18.83C88.55 18.61 88.35 18.43 88.08 18.27C88.4 18.08 88.74 17.98 89.09 17.98C89.27 17.98 89.49 18.05 89.76 18.2C90.03 18.35 90.29 18.52 90.54 18.72C90.79 18.92 90.97 19.12 91.08 19.31C91.67 19.25 92.27 19.17 92.88 19.09C93.49 19.01 94.09 18.94 94.68 18.87C94.66 18.42 94.65 17.99 94.63 17.56C94.61 17.14 94.57 16.72 94.51 16.3C94.45 15.85 94.32 15.5 94.14 15.26C93.96 15.01 93.62 14.86 93.14 14.79C93.32 14.53 93.58 14.33 93.92 14.17C94.26 14.01 94.56 13.93 94.8 13.93C95.06 13.93 95.38 14 95.77 14.15C96.16 14.29 96.51 14.49 96.81 14.74C97.11 14.99 97.27 15.29 97.27 15.64C97.27 15.77 97.25 15.86 97.21 15.92C97.17 15.98 97.12 16.05 97.05 16.15C96.95 16.33 96.87 16.57 96.8 16.89C96.73 17.21 96.66 17.53 96.6 17.86C96.54 18.19 96.47 18.47 96.41 18.71C96.71 18.68 97.04 18.63 97.39 18.58C97.74 18.52 98.08 18.46 98.4 18.4C98.72 18.32 98.98 18.25 99.19 18.2C99.4 18.15 99.61 18.06 99.81 17.95C99.89 17.9 99.97 17.86 100.04 17.83C100.11 17.8 100.18 17.75 100.24 17.69C100.34 17.61 100.46 17.57 100.6 17.57C100.79 17.57 101.06 17.63 101.39 17.76C101.72 17.89 102.07 18.05 102.43 18.25C102.79 18.45 103.09 18.67 103.34 18.91C103.59 19.15 103.71 19.4 103.71 19.65L103.76 19.63Z" fill="white"/>
<path d="M127.14 30.15C127.14 30.42 127.05 30.62 126.86 30.74C126.68 30.86 126.47 30.92 126.25 30.92C126.17 30.92 126.09 30.92 126.01 30.91C125.93 30.91 125.85 30.89 125.77 30.87C125.72 30.85 125.68 30.85 125.64 30.85C125.6 30.85 125.56 30.85 125.51 30.83C125.41 30.8 125.33 30.78 125.25 30.78C124.47 30.6 123.67 30.5 122.85 30.47C122.03 30.44 121.23 30.42 120.43 30.42C120.29 30.42 120.14 30.42 120 30.43C119.86 30.43 119.71 30.45 119.57 30.47C118.98 30.52 118.36 30.58 117.72 30.66C117.08 30.74 116.46 30.84 115.85 30.97C115.5 31.03 115.14 31.11 114.78 31.21C114.42 31.31 114.07 31.45 113.74 31.64C113.69 31.66 113.65 31.68 113.61 31.7C113.57 31.72 113.53 31.74 113.48 31.76C113.43 31.79 113.36 31.81 113.26 31.81C113.2 31.81 113.12 31.79 113.03 31.76C112.94 31.73 112.86 31.7 112.78 31.66C112.67 31.61 112.56 31.57 112.44 31.53C112.33 31.49 112.22 31.45 112.1 31.4C111.99 31.35 111.88 31.3 111.79 31.26C111.69 31.21 111.61 31.16 111.53 31.09C111.32 30.93 111.17 30.72 111.07 30.47C111.04 30.39 111.01 30.27 110.97 30.12C110.94 29.97 110.91 29.84 110.9 29.72C110.88 29.67 110.9 29.64 110.94 29.64C110.98 29.64 111.02 29.64 111.05 29.68C111.31 29.82 111.57 29.93 111.85 29.99C112.13 30.05 112.41 30.09 112.68 30.09C112.76 30.09 112.83 30.09 112.9 30.08C112.96 30.08 113.03 30.07 113.09 30.07C113.94 30.01 114.78 29.94 115.61 29.88C116.44 29.82 117.29 29.74 118.15 29.66C118.17 29.39 118.18 29 118.19 28.5C118.2 28 118.21 27.5 118.23 27C118.25 26.5 118.25 26.14 118.25 25.92V25.3C118.25 25.11 118.21 24.93 118.13 24.77C118.07 24.59 117.96 24.45 117.81 24.34C117.66 24.23 117.41 24.17 117.05 24.17C116.89 24.17 116.73 24.19 116.58 24.23C116.43 24.27 116.27 24.31 116.11 24.36C116.08 24.38 116.04 24.39 116 24.4C115.96 24.4 115.92 24.42 115.89 24.44C115.83 24.47 115.76 24.49 115.7 24.49C115.64 24.51 115.57 24.52 115.51 24.53C115.45 24.53 115.38 24.54 115.32 24.54C115.1 24.54 114.86 24.44 114.61 24.23C114.36 24.02 114.15 23.77 113.97 23.49C113.79 23.2 113.67 22.94 113.61 22.7C113.91 22.81 114.25 22.88 114.61 22.92C114.97 22.95 115.3 22.97 115.61 22.97C115.74 22.97 115.86 22.97 115.97 22.96C116.08 22.96 116.19 22.94 116.31 22.92C116.44 22.9 116.56 22.89 116.67 22.87L117.01 22.82C117.7 22.72 118.37 22.61 119.03 22.48C119.69 22.35 120.34 22.2 121 22.02C121.05 21.99 121.2 21.94 121.44 21.86C121.69 21.79 121.84 21.74 121.91 21.73C122.18 21.73 122.52 21.77 122.93 21.86C123.34 21.95 123.65 22.08 123.85 22.26C123.98 22.36 124.07 22.45 124.13 22.55C124.19 22.65 124.21 22.78 124.21 22.96C124.21 23.12 124.11 23.26 123.92 23.37C123.73 23.48 123.58 23.54 123.49 23.54C123.2 23.54 122.9 23.52 122.58 23.47C122.52 23.47 122.44 23.47 122.36 23.46C122.28 23.46 122.2 23.44 122.12 23.42C122.04 23.42 121.96 23.42 121.87 23.41C121.78 23.41 121.7 23.4 121.62 23.4C121.17 23.4 120.72 23.42 120.26 23.46C119.8 23.5 119.33 23.56 118.83 23.64C118.91 23.66 118.99 23.68 119.07 23.7C119.15 23.72 119.23 23.75 119.31 23.78C119.39 23.8 119.47 23.82 119.56 23.85C119.65 23.88 119.74 23.92 119.84 23.97C120.02 24.03 120.16 24.11 120.28 24.21C120.4 24.31 120.46 24.42 120.46 24.55C120.46 24.65 120.44 24.73 120.39 24.81C120.34 24.89 120.28 24.97 120.2 25.05C120.09 25.79 120 26.52 119.92 27.26C119.85 28 119.77 28.73 119.69 29.47C120.35 29.41 121.01 29.33 121.68 29.23C122.35 29.13 123 29.01 123.62 28.85C123.73 28.74 123.84 28.67 123.94 28.66C124.04 28.64 124.14 28.64 124.24 28.64C124.42 28.64 124.68 28.68 125.02 28.77C125.36 28.86 125.71 28.97 126.05 29.11C126.39 29.25 126.64 29.39 126.78 29.53C126.88 29.63 126.96 29.73 127.03 29.83C127.1 29.93 127.14 30.06 127.14 30.2V30.15Z" fill="white"/>
<path d="M140.56 20.04C140.7 20.22 140.79 20.4 140.82 20.6C140.85 20.8 140.76 20.99 140.53 21.16C140.26 23.34 139.69 25.3 138.84 27.05C137.98 28.8 136.65 30.25 134.84 31.38C134.49 31.6 134.11 31.82 133.7 32.02C133.29 32.22 132.83 32.38 132.32 32.51C132.21 32.53 132.14 32.51 132.1 32.45C132.07 32.39 132.1 32.34 132.22 32.29C132.52 32.15 132.89 31.92 133.32 31.62C133.75 31.32 134.1 31.04 134.38 30.78C135.16 30.01 135.84 29.08 136.42 27.98C137 26.88 137.44 25.74 137.76 24.54C138.08 23.34 138.24 22.2 138.24 21.13C138.24 20.7 138.14 20.32 137.94 19.99C137.74 19.66 137.43 19.44 137.02 19.33C136.99 19.31 136.97 19.29 136.97 19.27C136.97 19.25 136.97 19.23 136.99 19.21C137.17 19.1 137.38 18.99 137.64 18.9C137.9 18.81 138.12 18.76 138.31 18.76C138.66 18.76 139.06 18.89 139.51 19.16C139.96 19.42 140.3 19.72 140.54 20.04H140.56ZM154.67 20.11C154.22 21.1 153.7 22.15 153.11 23.24C152.52 24.34 151.85 25.31 151.09 26.16C150.26 27.09 149.3 27.94 148.21 28.7C147.12 29.46 146.05 30.08 144.99 30.55C144.8 30.71 144.65 30.84 144.53 30.93C144.42 31.03 144.25 31.06 144.03 31.03C143.87 31 143.69 30.86 143.48 30.61C143.27 30.36 143.08 30.1 142.9 29.83C142.74 29.59 142.61 29.36 142.5 29.15C142.4 28.93 142.34 28.75 142.34 28.59C142.34 28.51 142.4 28.43 142.51 28.36C142.62 28.29 142.72 28.2 142.8 28.08C142.85 28 142.89 27.91 142.93 27.82C142.97 27.72 143 27.63 143.01 27.53C143.09 26.49 143.14 25.38 143.17 24.21C143.19 23.03 143.2 21.93 143.18 20.91C143.16 20.27 143.14 19.69 143.12 19.17C143.1 18.65 143.04 18.29 142.96 18.08C142.86 17.81 142.7 17.59 142.46 17.43C142.22 17.27 141.93 17.14 141.6 17.05C141.57 17.05 141.54 17.03 141.5 17C141.47 16.97 141.48 16.93 141.55 16.88C141.77 16.72 142.05 16.59 142.38 16.5C142.71 16.4 142.98 16.36 143.18 16.36C143.34 16.36 143.58 16.43 143.89 16.56C144.2 16.7 144.53 16.86 144.86 17.06C145.19 17.26 145.48 17.47 145.72 17.7C145.96 17.92 146.08 18.12 146.08 18.3C146.08 18.49 146 18.68 145.84 18.88C145.68 19.07 145.56 19.26 145.48 19.46C145.42 19.62 145.34 19.88 145.26 20.23C145.18 20.58 145.12 20.98 145.09 21.43C145.06 21.96 145.02 22.55 144.97 23.21C144.92 23.87 144.87 24.52 144.83 25.18C144.78 25.84 144.74 26.42 144.71 26.93C144.68 27.44 144.66 27.81 144.66 28.03C145.68 27.81 146.77 27.31 147.91 26.53C149.05 25.75 150.14 24.85 151.16 23.83C151.77 23.22 152.37 22.55 152.97 21.83C153.57 21.1 154.02 20.47 154.33 19.92C154.41 19.78 154.5 19.74 154.59 19.81C154.69 19.88 154.7 19.99 154.64 20.13L154.67 20.11Z" fill="white"/>
<path d="M178.09 20.19C178.09 20.43 178 20.63 177.81 20.78C177.63 20.93 177.45 21.01 177.27 21.01C177.16 21.01 177.01 20.99 176.84 20.94C176.79 20.92 176.74 20.92 176.7 20.92C176.66 20.92 176.6 20.92 176.56 20.9C176.53 20.9 176.49 20.9 176.44 20.89C176.39 20.89 176.34 20.88 176.3 20.88C175.8 20.8 175.31 20.74 174.81 20.7C174.31 20.66 173.81 20.64 173.3 20.64C173.09 20.64 172.88 20.64 172.66 20.65C172.44 20.65 172.23 20.67 172.02 20.69C171.81 20.71 171.6 20.72 171.4 20.74C171.19 20.76 170.95 20.78 170.68 20.81C170.87 20.87 171.16 21.03 171.53 21.29C171.9 21.55 172.21 21.79 172.43 22.01C172.67 22.25 172.7 22.5 172.53 22.75C172.5 22.8 172.45 22.85 172.4 22.92C172.34 22.98 172.31 23.03 172.29 23.06C172.23 23.35 172.14 23.68 172.04 24.07C171.94 24.45 171.82 24.82 171.69 25.17C171.21 26.43 170.65 27.53 170.01 28.46C169.37 29.39 168.61 30.19 167.72 30.86C166.83 31.53 165.76 32.12 164.49 32.61C164.38 32.66 164.25 32.71 164.09 32.78C163.94 32.84 163.8 32.9 163.67 32.95C163.53 33 163.37 33.05 163.21 33.11C163.05 33.17 162.89 33.22 162.73 33.27C162.54 33.32 162.38 33.35 162.25 33.38C162.12 33.4 161.95 33.43 161.72 33.46C161.69 33.48 161.66 33.46 161.65 33.44C161.63 33.41 161.65 33.38 161.7 33.37C161.86 33.31 162.02 33.24 162.18 33.18C162.34 33.12 162.5 33.05 162.66 32.99C163.92 32.38 165.04 31.57 166.01 30.57C166.98 29.56 167.78 28.43 168.42 27.19C168.66 26.71 168.89 26.15 169.12 25.52C169.34 24.89 169.53 24.26 169.67 23.65C169.81 23.03 169.89 22.52 169.89 22.1C169.89 21.76 169.8 21.52 169.61 21.38C169.42 21.24 169.19 21.11 168.9 21C168.72 21.03 168.56 21.06 168.4 21.07C168.24 21.09 168.09 21.11 167.94 21.14C167.8 21.17 167.65 21.2 167.5 21.24C167.35 21.27 167.2 21.31 167.06 21.36C167.01 21.38 166.96 21.39 166.92 21.41C166.87 21.43 166.82 21.44 166.78 21.46C166.73 21.48 166.68 21.49 166.64 21.51C166.59 21.53 166.54 21.55 166.5 21.58C166.26 21.66 166.08 21.7 165.97 21.7C165.92 21.7 165.88 21.68 165.84 21.64C165.8 21.6 165.75 21.56 165.68 21.51C165.62 21.46 165.54 21.41 165.46 21.34C165.38 21.27 165.29 21.21 165.2 21.15C164.9 21.53 164.53 21.97 164.1 22.46C163.67 22.95 163.25 23.36 162.85 23.7C162.39 24.1 161.94 24.44 161.52 24.73C161.1 25.02 160.61 25.27 160.07 25.5C160.01 25.52 159.95 25.5 159.91 25.48C159.87 25.45 159.88 25.4 159.95 25.34C160.27 25.07 160.58 24.78 160.87 24.46C161.16 24.14 161.43 23.85 161.67 23.56C162.04 23.11 162.39 22.63 162.74 22.11C163.08 21.59 163.41 21.03 163.71 20.44C164.03 19.83 164.32 19.22 164.57 18.59C164.83 17.97 165.03 17.37 165.17 16.79C165.17 16.76 165.17 16.73 165.18 16.69C165.18 16.66 165.19 16.61 165.19 16.55C165.19 16.2 165.07 15.95 164.83 15.79C164.59 15.64 164.32 15.51 164.01 15.39C164.57 14.97 165.15 14.77 165.74 14.77C165.9 14.77 166.12 14.83 166.4 14.95C166.68 15.07 166.97 15.23 167.28 15.42C167.58 15.61 167.83 15.81 168.02 16.02C168.26 16.26 168.37 16.51 168.36 16.76C168.34 16.87 168.27 16.96 168.14 17.01C168.01 17.07 167.91 17.12 167.83 17.17C167.53 17.68 167.18 18.27 166.8 18.93C166.42 19.59 165.98 20.17 165.5 20.67C166.71 20.53 167.9 20.36 169.04 20.17C170.18 19.98 171.28 19.71 172.34 19.38L173.25 19.09C173.39 19.04 173.55 18.98 173.71 18.9C173.79 18.87 173.87 18.83 173.96 18.79C174.05 18.75 174.13 18.71 174.21 18.68C174.37 18.6 174.51 18.54 174.64 18.49C174.77 18.44 174.89 18.42 175 18.42C175.19 18.42 175.46 18.46 175.8 18.54C176.14 18.62 176.49 18.74 176.84 18.9C177.19 19.06 177.49 19.25 177.73 19.48C177.97 19.7 178.09 19.96 178.09 20.25V20.19Z" fill="white"/>
<path d="M201.97 18.51C201.97 18.88 201.83 19.16 201.54 19.35C201.38 19.45 201.22 19.51 201.06 19.55C200.9 19.59 200.73 19.64 200.56 19.71C200.4 19.77 200.25 19.85 200.12 19.95C199.98 20.05 199.84 20.14 199.7 20.24C199.01 20.66 198.22 21.06 197.31 21.46C196.41 21.86 195.56 22.17 194.78 22.4C194.73 23.38 194.56 24.37 194.28 25.38C193.99 26.39 193.59 27.34 193.07 28.24C192.55 29.14 191.91 29.91 191.14 30.57C190.72 30.92 190.28 31.25 189.8 31.54C189.32 31.84 188.83 32.1 188.34 32.32C187.88 32.54 187.41 32.73 186.94 32.88C186.47 33.03 185.98 33.16 185.46 33.25C185.35 33.27 185.24 33.29 185.12 33.32C185.01 33.35 184.9 33.37 184.81 33.37C184.7 33.37 184.65 33.35 184.67 33.31C184.69 33.27 184.73 33.23 184.79 33.2C184.93 33.14 185.09 33.08 185.25 33.03C185.41 32.98 185.56 32.93 185.71 32.86C186.08 32.72 186.43 32.55 186.78 32.37C187.12 32.19 187.45 31.97 187.75 31.73C188.71 30.96 189.54 30.05 190.23 29.01C190.93 27.96 191.46 26.83 191.83 25.63C192.2 24.43 192.38 23.21 192.38 21.99C192.38 21.65 192.28 21.37 192.09 21.13C191.98 21.02 191.86 20.91 191.74 20.82C191.62 20.73 191.5 20.64 191.37 20.56C191.45 20.51 191.6 20.44 191.83 20.34C192.05 20.24 192.28 20.16 192.51 20.09C192.74 20.02 192.9 19.98 192.98 19.98C193.49 19.98 193.92 20.17 194.25 20.56C194.43 20.77 194.6 20.97 194.78 21.17C194.96 21.37 195.12 21.58 195.28 21.81C195.47 21.63 195.72 21.4 196.02 21.11C196.32 20.82 196.63 20.5 196.93 20.14C197.23 19.78 197.49 19.43 197.7 19.08C197.91 18.74 198.01 18.44 198.01 18.18C198.01 17.86 197.88 17.67 197.63 17.62C197.37 17.56 197.13 17.54 196.89 17.54C196.15 17.54 195.33 17.64 194.41 17.83C193.49 18.02 192.58 18.25 191.67 18.53C190.77 18.8 189.95 19.06 189.23 19.3C189.02 19.36 188.81 19.44 188.59 19.54C188.37 19.64 188.17 19.75 187.98 19.88C187.87 19.94 187.75 20.02 187.63 20.1C187.51 20.18 187.38 20.23 187.23 20.24C187.17 20.24 187.1 20.22 187.04 20.19C186.4 20.01 185.84 19.71 185.37 19.27C184.9 18.83 184.66 18.24 184.66 17.51C184.66 17.41 184.66 17.31 184.68 17.2C184.7 17.09 184.73 16.99 184.78 16.91C184.94 17.01 185.1 17.1 185.26 17.19C185.42 17.28 185.58 17.35 185.74 17.39C186.03 17.49 186.5 17.53 187.16 17.52C187.82 17.52 188.56 17.47 189.39 17.4C190.22 17.33 191.06 17.24 191.91 17.14C192.76 17.04 193.54 16.94 194.25 16.84C194.96 16.74 195.52 16.67 195.92 16.62C196.1 16.59 196.27 16.57 196.44 16.56C196.61 16.56 196.77 16.53 196.93 16.5C197.15 16.44 197.4 16.33 197.66 16.19C197.92 16.05 198.15 15.97 198.34 15.97C198.61 15.97 198.95 16.04 199.36 16.19C199.77 16.33 200.17 16.53 200.57 16.78C200.97 17.03 201.31 17.3 201.58 17.61C201.85 17.91 201.99 18.23 201.99 18.55L201.97 18.51Z" fill="white"/>
<path d="M214.14 22.59C214.14 22.7 214.07 22.76 213.92 22.76C213.84 22.76 213.78 22.76 213.73 22.74C213.7 22.74 213.63 22.72 213.54 22.69C212.92 22.43 212.28 22.19 211.64 21.96C211 21.73 210.35 21.52 209.7 21.35C209.89 21.03 210.08 20.7 210.25 20.37C210.43 20.03 210.62 19.71 210.83 19.41C210.88 19.33 210.93 19.26 211 19.19C211.06 19.13 211.14 19.09 211.24 19.09C211.35 19.09 211.51 19.18 211.72 19.35C211.93 19.53 212.15 19.74 212.38 19.99C212.61 20.24 212.82 20.47 213.02 20.69C213.21 20.91 213.34 21.06 213.4 21.16C213.53 21.32 213.68 21.54 213.87 21.83C214.05 22.12 214.15 22.37 214.15 22.6L214.14 22.59ZM214.45 25.06C214.45 25.22 214.42 25.45 214.37 25.76C214.31 26.06 214.26 26.34 214.21 26.58C214 27.6 213.75 28.63 213.47 29.66C213.18 30.69 212.79 31.67 212.29 32.6C212.27 32.63 212.25 32.67 212.23 32.72C212.21 32.77 212.18 32.81 212.15 32.84C212.07 32.95 211.97 33.01 211.86 33.01C211.78 33.01 211.64 32.93 211.44 32.78C211.24 32.63 211.02 32.44 210.78 32.23C210.54 32.01 210.32 31.81 210.12 31.62C209.92 31.43 209.78 31.3 209.7 31.24C210.36 30.58 210.98 29.83 211.56 28.98C212.14 28.13 212.66 27.29 213.11 26.46C213.24 26.22 213.37 25.96 213.51 25.68C213.65 25.4 213.77 25.16 213.88 24.95C213.91 24.89 213.96 24.83 214.01 24.77C214.06 24.71 214.13 24.69 214.21 24.69C214.29 24.69 214.35 24.74 214.39 24.83C214.43 24.93 214.45 25.01 214.45 25.07V25.06ZM215.39 17.11C215.39 17.3 215.29 17.4 215.1 17.4C214.89 17.34 214.7 17.28 214.52 17.23C214.36 17.17 214.17 17.09 213.94 17.01C213.72 16.93 213.48 16.86 213.24 16.79C212.78 16.61 212.32 16.45 211.88 16.31C211.44 16.17 211.14 16.08 210.98 16.05C211.03 15.97 211.12 15.81 211.26 15.56C211.4 15.31 211.55 15.05 211.73 14.77C211.91 14.49 212.07 14.25 212.21 14.04C212.35 13.83 212.46 13.73 212.52 13.73C212.66 13.73 212.89 13.87 213.2 14.16C213.51 14.45 213.83 14.8 214.16 15.2C214.49 15.61 214.77 15.99 215.01 16.35C215.25 16.71 215.37 16.96 215.37 17.11H215.39ZM232.21 32.09C232.21 32.31 232.13 32.54 231.97 32.77C231.81 33 231.59 33.12 231.32 33.12H213.9V32.28H216.42V24.02H229.43C229.43 25 229.43 25.97 229.44 26.95C229.44 27.93 229.45 28.9 229.45 29.88C229.45 30.31 229.39 30.73 229.27 31.14C229.15 31.55 228.98 31.93 228.75 32.28H230.12C230.12 32.01 230.21 31.73 230.4 31.45C230.58 31.17 230.84 31.03 231.18 31.03C231.47 31.03 231.71 31.14 231.91 31.35C232.11 31.57 232.21 31.81 232.21 32.08V32.09ZM228.18 18.99C228.18 20.14 227.9 20.95 227.33 21.43C226.76 21.9 225.92 22.14 224.8 22.14H217.6V13.84H228.18V19V18.99ZM220.24 32.28V24.84H218.2V32.28H220.24ZM226.24 19.63C226.24 18.8 226.24 17.97 226.23 17.15C226.23 16.33 226.22 15.5 226.22 14.67H219.38V17.74H222.79C222.79 17.74 222.77 17.64 222.77 17.52C222.77 17.25 222.86 17.04 223.05 16.9C223.23 16.76 223.45 16.68 223.71 16.68C223.97 16.68 224.17 16.78 224.33 16.97C224.49 17.16 224.57 17.38 224.57 17.62C224.57 17.89 224.47 18.12 224.27 18.29C224.07 18.47 223.84 18.55 223.59 18.53H219.39V21.36H224.67C225.23 21.38 225.63 21.22 225.88 20.9C226.13 20.58 226.25 20.16 226.25 19.63H226.24ZM223.79 32.28V24.84H221.77V32.28H223.79ZM227.53 30.39C227.53 29.46 227.53 28.54 227.52 27.62C227.51 26.7 227.51 25.78 227.51 24.87H225.33V32.31H226.91C227.18 32.05 227.35 31.76 227.43 31.42C227.51 31.08 227.54 30.74 227.54 30.39H227.53Z" fill="white"/>
<path d="M245.84 25.47C245.84 25.6 245.82 25.73 245.78 25.87C245.74 26.01 245.7 26.14 245.65 26.27C245.35 27.01 244.9 27.73 244.32 28.43C243.74 29.13 243.09 29.79 242.39 30.39C241.69 30.99 241 31.51 240.33 31.94C239.83 32.24 239.31 32.52 238.75 32.76C238.19 33 237.63 33.21 237.07 33.38C237.01 33.4 236.95 33.41 236.9 33.42C236.85 33.42 236.8 33.43 236.76 33.43C236.65 33.43 236.59 33.4 236.59 33.33C236.59 33.3 236.61 33.26 236.65 33.22C236.69 33.18 236.73 33.15 236.76 33.14C237.37 32.77 238 32.33 238.67 31.81C239.33 31.29 239.97 30.73 240.59 30.12C241.21 29.51 241.76 28.88 242.25 28.21C242.74 27.55 243.11 26.88 243.37 26.21H237.9V25.35H245.68C245.68 25.35 245.76 25.35 245.78 25.37C245.84 25.37 245.88 25.41 245.88 25.49L245.84 25.47ZM255.23 19.99C255.23 20.69 255.09 21.25 254.82 21.67C254.55 22.09 254.18 22.4 253.73 22.61C253.27 22.82 252.77 22.95 252.22 23.02C251.67 23.09 251.1 23.12 250.53 23.12C250.24 23.12 249.95 23.12 249.67 23.11C249.38 23.11 249.09 23.1 248.81 23.1V31.02C248.81 31.58 248.76 32.12 248.67 32.65C248.57 33.18 248.36 33.61 248.02 33.95C247.68 34.29 247.16 34.45 246.46 34.45C246.14 34.45 245.77 34.34 245.34 34.13C244.92 33.91 244.51 33.66 244.13 33.36C243.75 33.06 243.44 32.81 243.22 32.6C243.2 32.57 243.18 32.53 243.14 32.49C243.1 32.45 243.08 32.41 243.08 32.38C243.08 32.32 243.12 32.28 243.2 32.28C243.23 32.28 243.25 32.28 243.26 32.29C243.26 32.29 243.28 32.3 243.3 32.3H243.37C243.56 32.35 243.75 32.4 243.93 32.46C244.11 32.52 244.3 32.56 244.49 32.59C244.87 32.69 245.25 32.73 245.62 32.73C246.13 32.73 246.45 32.6 246.58 32.33C246.71 32.07 246.77 31.71 246.77 31.26V27.16C246.77 25.8 246.77 24.44 246.79 23.08H240.96V15.52H245.21C245.45 14.96 245.65 14.39 245.82 13.8C245.99 13.22 246.14 12.62 246.29 12.01C246.42 12.03 246.63 12.06 246.91 12.12C247.2 12.18 247.51 12.24 247.83 12.32C248.16 12.4 248.45 12.48 248.72 12.56C248.99 12.64 249.15 12.71 249.21 12.78C249.26 12.83 249.28 12.88 249.28 12.95C249.28 13.05 249.14 13.22 248.86 13.47C248.58 13.72 248.26 13.99 247.89 14.27C247.54 14.53 247.2 14.78 246.88 15.03C246.56 15.28 246.34 15.44 246.21 15.52H255.23V19.98V19.99ZM253.19 16.39H242.75V19.03H249.83C249.83 18.81 249.91 18.58 250.07 18.36C250.23 18.14 250.45 18.02 250.72 18.02C250.98 18.02 251.18 18.12 251.34 18.33C251.5 18.54 251.58 18.75 251.58 18.98C251.58 19.21 251.49 19.4 251.32 19.58C251.14 19.76 250.93 19.84 250.67 19.84H242.75V22.34H250.62C251.36 22.34 251.97 22.15 252.46 21.78C252.95 21.4 253.19 20.82 253.19 20.04V16.39ZM259.57 32.16C259.57 32.42 259.45 32.65 259.22 32.86C258.99 33.07 258.74 33.17 258.46 33.17C258.25 33.17 257.99 33.13 257.68 33.06C257.37 32.99 257.11 32.91 256.9 32.83C255.33 32.19 253.94 31.29 252.74 30.13C251.54 28.97 250.5 27.66 249.66 26.21C250.72 25.83 251.76 25.38 252.78 24.88C253.8 24.38 254.8 23.82 255.76 23.21C255.86 23.29 256.02 23.44 256.26 23.67C256.5 23.89 256.73 24.11 256.94 24.33C257.16 24.55 257.26 24.69 257.26 24.75C257.26 24.88 257.17 24.99 257 25.09C256.97 25.11 256.93 25.12 256.89 25.13C256.85 25.13 256.81 25.15 256.78 25.17C256.73 25.19 256.69 25.2 256.65 25.21C256.61 25.21 256.57 25.22 256.54 25.22C255.82 25.4 255.09 25.55 254.34 25.68C253.6 25.81 252.86 25.94 252.12 26.09C252.33 26.62 252.63 27.19 253.03 27.81C253.43 28.43 253.89 29.03 254.41 29.63C254.93 30.23 255.46 30.78 256.01 31.27C256.55 31.77 257.07 32.16 257.55 32.45C257.57 32.15 257.67 31.85 257.85 31.57C258.03 31.29 258.3 31.15 258.65 31.15C258.92 31.15 259.14 31.26 259.31 31.49C259.48 31.71 259.56 31.95 259.56 32.19L259.57 32.16Z" fill="white"/>
</g>
<defs>
<clipPath id="clip0_22_232">
<rect width="259.57" height="64.46" fill="white" transform="translate(0 0.769989)"/>
</clipPath>
</defs>
</svg>
