<?xml version="1.0" encoding="UTF-8"?>
<svg id="_レイヤー_1" data-name="レイヤー_1" xmlns="http://www.w3.org/2000/svg" width="546.15" height="322.67" version="1.1" viewBox="0 0 546.15 322.67">
  <!-- Generator: Adobe Illustrator 29.5.0, SVG Export Plug-In . SVG Version: 2.1.0 Build 137)  -->
  <defs>
    <style>
      .st0 {
        fill: #fff;
        fill-rule: evenodd;
      }
    </style>
  </defs>
  <path class="st0" d="M527.77,124.97c-9-22.66-18-45.34-27-68v-1c8.33,2,16.67,4,25,6-.33-1-.67-2-1-3-23.33-5.67-46.67-11.33-70-17-14.72,1.53-26.61,11.21-39,15-1.05-5.9.04-11.63,2-17-16.74-11.35-44.85,16.79-52,24v2c-8.42-20.25,7.74-40.8,15-50-5.33,1.67-10.67,3.33-16,5-27.1,17.03-6.6,62.88-14,95-7,17-14,34-21,51-1.33,1-2.67,2-4,3-4.6-16.33-7.47-49.36-15-65-1,5-2,10-3,15-.33.33-.67.67-1,1h-1c-9.94-13.12-33.75-15.36-41-30,.33-5,.67-10,1-15-5.79,6.95-4.18,21.06-10,29-18.4-3.04-32.16-28.49-45-39,3.33,7.33,6.67,14.67,10,22,5.71,26.66-32.65,130.67-46,136-2,.33-4,.67-6,1l-1-1,10-25v-1c-2.67.67-5.33,1.33-8,2h-1c-5.34-16.42,9.64-31.2,4-49-4.67-5.67-9.33-11.33-14-17-13.02-17.79-19.99-40-15-68,15.48,4.08,19.67,21.32,36,23-10.52-16.84-19.96-25.2-43-25-9.66,18.91,20.52,97.4,18,135-10-10-20-20-30-30h-1c-1.33,6.67-2.67,13.33-4,20,6.23,3.96,29.54,17.07,34,11,18.44,13.82-12.59,42.62-25,52h-2v1c20.66-7.33,41.34-14.67,62-22,7.08-5.41,6.63-32.36,10-41l14-28c1.33-.67,2.67-1.33,4-2-4.68,13.8-5.31,27.22-1,41,1.33.33,2.67.67,4,1-2.22-13.18,2-27.46,5-39,4.12-15.85-1.04-41.41,1-57,5.33,1,10.67,2,16,3,4.92,2.22,8.04,5.84,10,11,2.03,6.77-2.91,21.11-2,32,1-5,2-10,3-15v-2h1c6.58,7.35,3.62,24.42,12,30-2,6-4,12-6,18,10.8-7.86,26.19-26.03,27-43-.33-.67-.67-1.33-1-2-8.41-1.86-18.46-2.94-22-10-2.22-5.04-.23-11.63,1-16,11.82-8.08,25.81.65,36,6,8.41,29.75,3.16,97.69-17,106-8.75,3.6-25.01-7.42-31-10h-1v1c10.86,11.12,25.74,11.6,31,29,5.61,2.23,6.6.63,12,4-1.42-21.77,6.25-27.27,9-47,.67-.33,1.33-.67,2-1,6.88,6.88,15.38,16.26,25,20,12.67.67,25.33,1.33,38,2,24.68,5.09,32.64,10.38,58,1,1-14.67,2-29.33,3-44-6.18,9.57-5.2,26.15-14,33-25.37,11.95-73.39-.31-91-8-.67-5.33-1.33-10.67-2-16,14.98-9.49,36.95-9.02,51,0,.67-3.33,1.33-6.67,2-10,4.67-2.67,9.33-5.33,14-8h2c-20.41-7.14-26.09,1.46-42,5h-1c-6.43-25.32,15.18-69.73,18-96v11h1c2.78-8.35,8.86-13.37,12-20,2.61-5.52.7-12.69,3-18,5.8-2.49,14.58-6.48,22-2,2,1.67,4,3.33,6,5,1.31,23.18-27.23,30.12-40,43h-2v1c8.33-2.33,16.67-4.67,25-7,2,2,4,4,6,6-1.33,2-2.67,4-4,6,.33.67.67,1.33,1,2,9.36,1.95,8.69-2.75,16-4,3.67,1.33,7.33,2.67,11,4,7.7.55,12.47-7.39,18-10,.33-1,.67-2,1-3-5-5-10-10-15-15-1.33.33-2.67.67-4,1-5.4,2.97-8.33,10.49-10,17-3.11,1.98-3.8,3.36-8,2-3.39-4.26.71-7.83,3-12,4.67-7,9.33-14,14-21,16.52-10.92,70.31-16.2,80,5v7c-2.28,1.95-9.71,1.34-16,1,19.63,25.32,44.91,62.01,49,101h1c.33-3,.67-6,1-9-3.33-15-6.67-30-10-45ZM313.77,33.97c-14,7.67-28,15.33-42,23-3.23,4.86-5.46,10.18-6,18h1c8.82-18.56,34.01-26.05,47-41ZM182.77,89.97c-1-.33-2-.67-3-1,2,1.41,1.53.78,3,1ZM123.77,163.97c-6.67-11.67-13.33-23.33-20-35-1.67-.33-3.33-.67-5-1-4,2.67-8,5.33-12,8h-1c.67-4.33,1.33-8.67,2-13,2.58-2.55,8.58-2.34,14-2,.67-1,1.33-2,2-3-5.2-4.57-8.98-7.96-19-8-5.67,6-11.33,12-17,18,1.59,14.8,1.5,31.83,0,47h1c8-9.67,16-19.33,24-29,1.67-1.33,3.33-2.67,5-4,8.67,8.67,17.33,17.33,26,26v-4ZM62.77,166.97c-20.38,1.15-30.89-15.76-46-24,7.43,16.16,20.66,29.25,27,48,8-5,16-10,24-15-2.94-2.14-3.96-5.03-5-9Z"/>
  <path class="st0" d="M1756.77-119.53c-7.67-2-15.33-4-23-6,5.52,4.54,12.4,6.39,23,6ZM1905.77,34.47c-2-10-4-20-6-30-19.33-16.66-38.67-33.33-58-50-1.33-1.67-2.67-3.33-4-5,3.67-5.33,7.33-10.67,11-16,.33-1,.67-2,1-3-11.54-3.46-34.36,3.73-43-7-2.67-8-5.33-16-8-24-4.37-8.83-10.23-8.52-10-25-10.33,2-20.67,4-31,6,5.33,1,10.67,2,16,3v11c-15.75,1.07-30.74,8.05-39,17,16.88-5.43,35.21-8.75,58-6,2,4,4,8,6,12-.64,7-7.95,8.89-11,16-15.4,9.02-43.05,6.17-59,13-18.7,8.01-23.82,27.91-43,34-6.77,11.36-3.38,27.54-3,46h1c7.8-30.92,16.32-51.61,42-65-1.89,10.31-8.31,14.53-14,21,3.33,9.33,6.67,18.67,10,28,.67.33,1.33.67,2,1-.88-54.5,21.54-62.12,66-72,10-2.33,20-4.67,30-7,3,2,6,4,9,6,1.18,3.98,1.16,2.25-2,6,4.58,12.38,12.29,22.78,22,30-.67-3-1.33-6-2-9h1c13.24,7.23,52.24,43.46,45,65-5.83,9.4-40.36,13.93-51,24v4c17.86-5.22,31.33-12.74,51-18-11.85,26.43-50.5,27-88,27-5.33-15-10.67-30-16-45,4.26-1.97,8.52-3.93,12.78-5.9-6.59.3-13.19.6-19.78.9v22c3,2,6,4,9,6,2.5,5.6.54,10.01,0,18,7.71,2.94,10.26,9.27,16,14,13.91-4.96,24.16-4.9,41-4,.33.67.67,1.33,1,2-22.66,8.33-45.34,16.67-68,25-25.13,5.07-25.5-11.72-36-15-12.67,1.33-25.33,2.67-38,4,16,5.67,32,11.33,48,17-4.33,1-8.67,2-13,3,10.77,11.64,73.86,21.47,95,15,1.67-2.67,3.33-5.33,5-8-1-.67-2-1.33-3-2-9.23-3.58-20.57,2.15-27,4-19.66-2-39.34-4-59-6v-1c12.85-2.95,46.12-1.27,56-5,9.57-5.9,9.47-18.4,22-23,24.95-9.16,59.32,16.12,65-18-3.67,1.33-7.33,2.67-11,4,7-11.67,14-23.33,21-35ZM1801.77,16.47c-.07.03-.15.07-.22.1.74-.03,1.48-.07,2.22-.1h-2ZM1690.77,145.47c.33-1,.67-2,1-3,4.85-3.12,11.48-3.87,19-5,3-5.42,2.98-11.31,2-19,9-2.33,18-4.67,27-7v-1c-9.67-1-19.33-2-29-3-1.33.33-2.67.67-4,1-.33.67-.67,1.33-1,2,1.67,2.67,3.33,5.33,5,8-14.6,10.3-31.91,12.11-40,29,1.67,2,3.33,4,5,6,8.67.33,17.33.67,26,1v-1c-3.33-1.33-6.67-2.67-10-4-.33-1.33-.67-2.67-1-4ZM1736.77,166.47v-1c-11-3.67-22-7.33-33-11,6.74,6.99,21.7,13.01,33,12ZM1737.77,166.47c11.72,7.73,29.73,10.13,47,12-3.74-6.24-10.86-8.91-14-15h-10c-7.67.67-15.33,1.33-23,2v1ZM1835.77,190.47v-1c-17-3.67-34-7.33-51-11,11.06,17.99,26.68,13.81,51,12ZM1890.77,183.47h-9c-15,2-30,4-45,6v1c16.41,4.18,17.43,17.03,30,23,.67.67,1.33,1.33,2,2h1c-1-3.33-2-6.67-3-10,5.82-6.02,17.4-7.93,28-9-1.33-4.33-2.67-8.67-4-13ZM1874.77,229.47c.33-2.67.67-5.33,1-8-2-2-4-4-6-6,1.67,4,3.33,8,5,12v2ZM1842.77,267.47c1.21-.82,2.5-1.8,3.83-2.91-4.02,2.21-7.9,4.67-11.68,7.21,2.9-1.31,5.54-2.73,7.85-4.3ZM1873.77,245.47c1.33-3.67,2.67-7.33,4-11-1-1.33-2-2.67-3-4-5.12,10.1-18.1,25.74-28.17,34.09,12.31-6.77,25.85-11.15,41.17-8.09,2.94,4.85,3.91,8.26,3,15,12.28-14.2-4.55-25-17-26ZM1714.77,313.47c-3.67,17.66-7.33,35.34-11,53,8.36,11.31,21.34,23.12,35,29-3.19-10.56-14.49-13.88-18-23-6.62-17.21,2.29-40.92,3-57,5.54-3.73,13.58-5.97,22-7,8.67,7.33,17.33,14.67,26,22,9.49,13.64,12.44,27.45,26,37,1.67-.33,3.33-.67,5-1,.67-1,1.33-2,2-3-18.33-19.66-36.67-39.34-55-59,18.33-4.33,36.67-8.67,55-13,9.43-4.47,19.33-12.41,30.15-19.7-33.57,15.16-102.85,14.89-120.15,41.7Z"/>
</svg>